<svg version="1.1" id="Layer_1" xmlns="http://www.w3.org/2000/svg" xmlns:xlink="http://www.w3.org/1999/xlink" x="0px" y="0px"
	 width="100%" viewBox="0 0 924 188" enable-background="new 0 0 924 188" xml:space="preserve">
<path fill="#0A0E0F" opacity="1.000000" stroke="none" 
	d="
M684.000000,189.000000 
	C456.051147,189.000000 228.602264,189.000000 1.076702,189.000000 
	C1.076702,126.398636 1.076702,63.797150 1.076702,1.097831 
	C308.999969,1.097831 617.000000,1.097831 924.972900,1.097831 
	C924.972900,63.731030 924.972900,126.365524 924.972900,189.000000 
	C844.797180,189.000000 764.648560,189.000000 684.000000,189.000000 
M159.472015,182.995728 
	C160.804626,182.995728 162.157364,182.844818 163.466690,183.019379 
	C175.094864,184.569702 182.327026,175.502869 182.211075,164.699127 
	C181.708786,117.896637 181.993790,71.085678 181.997772,24.277805 
	C181.998749,12.907933 176.181259,7.003923 164.949097,7.003943 
	C117.641487,7.004028 70.333885,7.004366 23.026278,7.003666 
	C12.010418,7.003503 6.002001,12.936764 6.002540,23.802286 
	C6.004892,71.276466 6.004491,118.750656 6.002857,166.224838 
	C6.002491,176.886551 12.020406,182.994781 22.555016,182.995300 
	C67.863708,182.997589 113.172401,182.995941 159.472015,182.995728 
M417.994476,108.500000 
	C417.994476,118.592751 417.994476,128.685501 417.994476,138.777374 
	C424.822784,138.777374 431.080750,138.777374 437.482666,138.777374 
	C437.482666,107.180222 437.482666,75.811989 437.482666,44.078571 
	C431.549164,44.078571 425.899261,44.344730 420.289612,43.984642 
	C416.573761,43.746113 414.777039,45.192806 413.025635,48.318623 
	C405.708405,61.378147 398.078735,74.262627 390.302429,87.661209 
	C388.992432,85.571106 387.997589,84.067764 387.085815,82.515633 
	C380.197144,70.789253 373.357269,59.033951 366.400879,47.347969 
	C365.639160,46.068340 364.272736,44.286316 363.125488,44.239479 
	C356.066803,43.951347 348.990509,44.094997 341.973663,44.094997 
	C341.973663,76.109612 341.973663,107.467155 341.973663,138.726929 
	C348.433563,138.726929 354.525848,138.726929 360.995514,138.726929 
	C360.995514,116.425133 360.995514,94.398483 360.995514,70.829796 
	C368.461182,83.484276 375.124786,94.842896 381.858429,106.159851 
	C384.358673,110.361893 394.935211,110.228348 397.386322,105.998444 
	C401.290344,99.261414 405.115601,92.478767 409.016937,85.740181 
	C411.743591,81.030655 414.541687,76.362518 417.994476,70.512611 
	C417.994476,83.857109 417.994476,95.678551 417.994476,108.500000 
M218.588547,139.004105 
	C223.011063,139.004105 227.433578,139.004105 232.004105,139.004105 
	C232.004105,132.877350 232.004089,127.393242 232.004089,121.909134 
	C232.004089,116.490677 232.004105,111.072220 232.004105,104.930733 
	C240.637589,104.930733 248.642303,105.442558 256.557983,104.820717 
	C271.536011,103.644081 281.855225,93.209106 283.273376,78.678383 
	C284.890961,62.104618 277.576691,49.018375 261.966614,46.390560 
	C245.764954,43.663158 229.024582,44.135975 212.382385,43.201508 
	C212.382385,75.998482 212.382385,107.375626 212.382385,139.004105 
	C214.328888,139.004105 215.974731,139.004105 218.588547,139.004105 
M624.395996,124.021858 
	C618.649719,125.872765 613.017761,128.690079 607.134888,129.386108 
	C591.906982,131.187836 579.922180,123.110123 575.338257,108.696899 
	C572.041199,98.329987 571.970337,87.791328 574.623413,77.228584 
	C579.645752,57.233482 595.738525,50.416050 614.704590,55.000504 
	C622.963501,56.996830 628.523010,62.548828 631.128296,70.868660 
	C631.480591,71.993675 632.708008,73.560623 633.655823,73.654503 
	C637.068298,73.992508 640.534485,73.787277 644.414001,73.787277 
	C643.528381,63.653389 639.297119,56.112766 631.499268,50.698555 
	C620.159119,42.824894 607.517883,41.628304 594.295837,43.996143 
	C579.713318,46.607624 569.662231,54.833981 563.975586,68.499397 
	C560.258057,77.433113 559.492737,86.720520 559.946594,96.289429 
	C561.268250,124.158501 578.991760,140.851318 606.505310,140.450089 
	C639.014526,139.975998 649.550781,113.990105 646.092224,91.377151 
	C632.819946,91.377151 619.582642,91.377151 606.590454,91.377151 
	C606.590454,95.020126 606.590454,98.259140 606.590454,101.876938 
	C615.912231,101.876938 624.854492,101.876938 634.073730,101.876938 
	C633.570129,110.498497 631.490906,117.952606 624.395996,124.021858 
M502.865295,137.550262 
	C511.736725,133.784988 516.463440,127.154358 516.355103,117.448181 
	C516.241760,107.290642 510.007538,101.921906 501.134827,98.879044 
	C498.012787,97.808357 494.797699,97.011238 491.635468,96.054947 
	C487.372131,94.765648 482.979279,93.759674 478.931610,91.975227 
	C477.369324,91.286491 475.632019,88.728531 475.745636,87.149620 
	C475.856537,85.607704 477.961517,83.558945 479.649414,82.891220 
	C487.782135,79.673981 494.259583,82.748840 497.163849,90.683929 
	C502.795349,90.683929 508.369019,90.683929 513.924133,90.683929 
	C513.958740,80.933907 509.064453,74.179253 499.634460,71.177635 
	C490.363342,68.226555 480.965668,68.257385 471.656097,71.046249 
	C461.940369,73.956787 456.964355,79.680405 456.607056,87.973160 
	C456.211884,97.145744 460.461212,103.245880 470.281250,107.060783 
	C474.282623,108.615257 478.493347,109.625298 482.589355,110.943459 
	C486.511444,112.205650 490.610107,113.141006 494.262848,114.959686 
	C498.392426,117.015770 498.451874,123.272072 494.759033,125.827003 
	C487.134796,131.101959 474.717773,126.423775 472.634979,117.639511 
	C466.880463,117.639511 461.173798,117.639511 455.485779,117.639511 
	C455.570587,129.398941 461.777252,135.855011 472.221649,138.652954 
	C482.155304,141.314072 492.255859,141.225784 502.865295,137.550262 
M829.707642,139.011734 
	C832.642212,139.011734 835.576782,139.011734 838.420166,139.011734 
	C838.420166,107.017532 838.420166,75.645012 838.420166,44.213886 
	C834.398804,44.213886 830.755493,44.213886 826.468994,44.213886 
	C826.468994,55.836895 826.468994,67.334618 826.468994,79.523994 
	C825.381775,78.630005 824.996887,78.375763 824.687134,78.050003 
	C809.799622,62.391216 785.777100,67.645386 778.731262,88.128510 
	C775.565613,97.331375 775.421387,106.805161 777.267212,116.193474 
	C779.306763,126.566772 783.798889,135.625046 794.879761,138.961426 
	C805.842651,142.262283 815.884705,140.349747 824.287964,132.063507 
	C824.821533,131.537415 825.493774,131.152039 826.015320,130.765152 
	C826.998108,133.693146 827.889404,136.348694 829.707642,139.011734 
M872.548889,121.667580 
	C871.171326,116.899902 869.793762,112.132217 868.182495,106.555664 
	C885.657898,106.555664 901.722229,106.555664 917.917114,106.555664 
	C917.917114,102.730576 918.219299,99.375603 917.862366,96.092285 
	C916.631348,84.770042 911.919861,75.345932 900.653748,71.375107 
	C888.576355,67.118340 876.606384,67.622856 866.704163,77.045006 
	C855.472168,87.732422 853.897949,112.363297 862.502441,126.905403 
	C873.059021,144.746719 901.735535,142.940201 911.388367,133.061325 
	C915.769714,128.577423 918.326172,123.458183 917.930420,116.910362 
	C913.988892,116.910362 910.262390,116.910362 906.344421,116.910362 
	C906.091736,123.235405 903.309570,127.780548 897.545471,129.766830 
	C888.951599,132.728226 878.143372,131.324799 872.548889,121.667580 
M676.932434,102.497246 
	C676.932434,91.887962 676.932434,81.278671 676.932434,70.438232 
	C672.665771,70.438232 668.910828,70.438232 664.982361,70.438232 
	C664.843262,71.344391 664.608154,72.146355 664.613892,72.946602 
	C664.719116,87.593079 664.882996,102.239166 664.973877,116.885704 
	C665.099854,137.204391 678.712830,143.199905 696.074280,138.837097 
	C701.513367,137.470322 706.304199,133.524323 711.480469,130.710693 
	C711.703186,133.187500 711.950806,135.941879 712.197510,138.685669 
	C716.075195,138.685669 719.803162,138.685669 723.494019,138.685669 
	C723.494019,115.790924 723.494019,93.226753 723.494019,70.564957 
	C719.303162,70.564957 715.425354,70.564957 711.198792,70.564957 
	C711.198792,84.559814 710.631042,98.224007 711.406494,111.811539 
	C711.890564,120.293770 707.633728,124.663841 701.006348,127.164215 
	C696.687195,128.793732 691.666870,128.986572 686.953186,129.031433 
	C682.127747,129.077393 678.590149,126.188812 677.956055,121.350235 
	C677.183533,115.455132 677.236511,109.451843 676.932434,102.497246 
M311.429932,139.007156 
	C314.010620,139.007156 316.591309,139.007156 319.026794,139.007156 
	C319.026794,106.987038 319.026794,75.632256 319.026794,44.452934 
	C312.257629,44.452934 305.860229,44.452934 299.420837,44.452934 
	C299.420837,76.058067 299.420837,107.286491 299.420837,139.007156 
	C303.229950,139.007156 306.844635,139.007156 311.429932,139.007156 
M757.923279,94.500031 
	C757.923279,86.569016 757.923279,78.638000 757.923279,70.497559 
	C753.728088,70.497559 750.018555,70.497559 746.284180,70.497559 
	C746.284180,93.456688 746.284180,116.127151 746.284180,138.664886 
	C750.303345,138.664886 754.023438,138.664886 757.923279,138.664886 
	C757.923279,124.049057 757.923279,109.774544 757.923279,94.500031 
M756.671448,56.363461 
	C760.049988,53.299934 760.559692,49.706200 757.642029,46.298306 
	C754.937988,43.139824 751.148071,43.006916 747.722717,45.064228 
	C744.547913,46.971100 743.482910,50.016628 745.060730,53.620255 
	C746.695862,57.354824 750.316223,58.613079 755.116150,57.154625 
	C755.431885,57.058697 755.732239,56.912315 756.671448,56.363461 
z"/>
<path fill="#1D1D1D" opacity="1.000000" stroke="none" 
	d="
M158.976562,182.995728 
	C113.172401,182.995941 67.863708,182.997589 22.555016,182.995300 
	C12.020406,182.994781 6.002491,176.886551 6.002857,166.224838 
	C6.004491,118.750656 6.004892,71.276466 6.002540,23.802286 
	C6.002001,12.936764 12.010418,7.003503 23.026278,7.003666 
	C70.333885,7.004366 117.641487,7.004028 164.949097,7.003943 
	C176.181259,7.003923 181.998749,12.907933 181.997772,24.277805 
	C181.993790,71.085678 181.708786,117.896637 182.211075,164.699127 
	C182.327026,175.502869 175.094864,184.569702 163.466690,183.019379 
	C162.157364,182.844818 160.804626,182.995728 158.976562,182.995728 
M135.807617,87.500023 
	C135.807602,76.008453 135.821854,64.516853 135.802200,53.025314 
	C135.790588,46.245457 132.695160,42.218910 127.495918,42.128288 
	C122.238701,42.036659 119.009926,46.042229 119.001221,52.786663 
	C118.980370,68.941460 118.994057,85.096298 118.994553,101.251114 
	C118.994942,113.741951 118.918152,126.233490 119.031319,138.723312 
	C119.086060,144.765137 123.799576,148.858887 128.996246,147.719864 
	C133.300064,146.776535 135.776947,143.351395 135.791321,137.963715 
	C135.835297,121.475929 135.807404,104.987938 135.807617,87.500023 
M100.225662,78.392784 
	C97.302963,75.409645 93.843452,74.828201 90.176117,76.589912 
	C86.566872,78.323700 85.741722,81.591362 85.758568,85.378731 
	C85.836365,102.868279 85.771912,120.358398 85.804665,137.848236 
	C85.816338,144.082397 88.806046,147.734390 93.821587,147.854645 
	C99.014778,147.979172 102.188652,144.204483 102.200119,137.707245 
	C102.230705,120.383980 102.263947,103.060265 102.146202,85.737747 
	C102.131027,83.504761 101.229881,81.277802 100.225662,78.392784 
M69.008171,118.832108 
	C68.652542,112.204483 65.636185,108.776901 60.329659,108.970451 
	C55.252071,109.155655 52.256084,112.777832 52.207565,118.954399 
	C52.155224,125.618095 52.086525,132.285019 52.234402,138.945862 
	C52.349621,144.135559 55.874912,147.778534 60.479782,147.872696 
	C65.304070,147.971359 68.887222,144.239944 68.980591,138.749863 
	C69.088234,132.420761 69.007370,126.088463 69.008171,118.832108 
z"/>
<path fill="#FCFCFC" opacity="1.000000" stroke="none" 
	d="
M417.994476,108.000000 
	C417.994476,95.678551 417.994476,83.857109 417.994476,70.512611 
	C414.541687,76.362518 411.743591,81.030655 409.016937,85.740181 
	C405.115601,92.478767 401.290344,99.261414 397.386322,105.998444 
	C394.935211,110.228348 384.358673,110.361893 381.858429,106.159851 
	C375.124786,94.842896 368.461182,83.484276 360.995514,70.829796 
	C360.995514,94.398483 360.995514,116.425133 360.995514,138.726929 
	C354.525848,138.726929 348.433563,138.726929 341.973663,138.726929 
	C341.973663,107.467155 341.973663,76.109612 341.973663,44.094997 
	C348.990509,44.094997 356.066803,43.951347 363.125488,44.239479 
	C364.272736,44.286316 365.639160,46.068340 366.400879,47.347969 
	C373.357269,59.033951 380.197144,70.789253 387.085815,82.515633 
	C387.997589,84.067764 388.992432,85.571106 390.302429,87.661209 
	C398.078735,74.262627 405.708405,61.378147 413.025635,48.318623 
	C414.777039,45.192806 416.573761,43.746113 420.289612,43.984642 
	C425.899261,44.344730 431.549164,44.078571 437.482666,44.078571 
	C437.482666,75.811989 437.482666,107.180222 437.482666,138.777374 
	C431.080750,138.777374 424.822784,138.777374 417.994476,138.777374 
	C417.994476,128.685501 417.994476,118.592751 417.994476,108.000000 
z"/>
<path fill="#FCFCFC" opacity="1.000000" stroke="none" 
	d="
M218.104553,139.004105 
	C215.974731,139.004105 214.328888,139.004105 212.382385,139.004105 
	C212.382385,107.375626 212.382385,75.998482 212.382385,43.201508 
	C229.024582,44.135975 245.764954,43.663158 261.966614,46.390560 
	C277.576691,49.018375 284.890961,62.104618 283.273376,78.678383 
	C281.855225,93.209106 271.536011,103.644081 256.557983,104.820717 
	C248.642303,105.442558 240.637589,104.930733 232.004105,104.930733 
	C232.004105,111.072220 232.004089,116.490677 232.004089,121.909134 
	C232.004089,127.393242 232.004105,132.877350 232.004105,139.004105 
	C227.433578,139.004105 223.011063,139.004105 218.104553,139.004105 
M241.443039,60.374676 
	C238.356918,60.374676 235.270782,60.374676 232.232162,60.374676 
	C232.232162,70.349075 232.232162,79.617485 232.232162,89.137871 
	C238.081818,89.137871 243.710129,89.323784 249.321457,89.094200 
	C257.693054,88.751678 262.655792,83.727722 262.999207,75.650497 
	C263.359955,67.165451 258.876099,61.836006 250.338928,60.795765 
	C247.709991,60.475433 245.038422,60.505226 241.443039,60.374676 
z"/>
<path fill="#F9F9F9" opacity="1.000000" stroke="none" 
	d="
M624.683594,123.795311 
	C631.490906,117.952606 633.570129,110.498497 634.073730,101.876938 
	C624.854492,101.876938 615.912231,101.876938 606.590454,101.876938 
	C606.590454,98.259140 606.590454,95.020126 606.590454,91.377151 
	C619.582642,91.377151 632.819946,91.377151 646.092224,91.377151 
	C649.550781,113.990105 639.014526,139.975998 606.505310,140.450089 
	C578.991760,140.851318 561.268250,124.158501 559.946594,96.289429 
	C559.492737,86.720520 560.258057,77.433113 563.975586,68.499397 
	C569.662231,54.833981 579.713318,46.607624 594.295837,43.996143 
	C607.517883,41.628304 620.159119,42.824894 631.499268,50.698555 
	C639.297119,56.112766 643.528381,63.653389 644.414001,73.787277 
	C640.534485,73.787277 637.068298,73.992508 633.655823,73.654503 
	C632.708008,73.560623 631.480591,71.993675 631.128296,70.868660 
	C628.523010,62.548828 622.963501,56.996830 614.704590,55.000504 
	C595.738525,50.416050 579.645752,57.233482 574.623413,77.228584 
	C571.970337,87.791328 572.041199,98.329987 575.338257,108.696899 
	C579.922180,123.110123 591.906982,131.187836 607.134888,129.386108 
	C613.017761,128.690079 618.649719,125.872765 624.683594,123.795311 
z"/>
<path fill="#FAFAFA" opacity="1.000000" stroke="none" 
	d="
M502.506348,137.700394 
	C492.255859,141.225784 482.155304,141.314072 472.221649,138.652954 
	C461.777252,135.855011 455.570587,129.398941 455.485779,117.639511 
	C461.173798,117.639511 466.880463,117.639511 472.634979,117.639511 
	C474.717773,126.423775 487.134796,131.101959 494.759033,125.827003 
	C498.451874,123.272072 498.392426,117.015770 494.262848,114.959686 
	C490.610107,113.141006 486.511444,112.205650 482.589355,110.943459 
	C478.493347,109.625298 474.282623,108.615257 470.281250,107.060783 
	C460.461212,103.245880 456.211884,97.145744 456.607056,87.973160 
	C456.964355,79.680405 461.940369,73.956787 471.656097,71.046249 
	C480.965668,68.257385 490.363342,68.226555 499.634460,71.177635 
	C509.064453,74.179253 513.958740,80.933907 513.924133,90.683929 
	C508.369019,90.683929 502.795349,90.683929 497.163849,90.683929 
	C494.259583,82.748840 487.782135,79.673981 479.649414,82.891220 
	C477.961517,83.558945 475.856537,85.607704 475.745636,87.149620 
	C475.632019,88.728531 477.369324,91.286491 478.931610,91.975227 
	C482.979279,93.759674 487.372131,94.765648 491.635468,96.054947 
	C494.797699,97.011238 498.012787,97.808357 501.134827,98.879044 
	C510.007538,101.921906 516.241760,107.290642 516.355103,117.448181 
	C516.463440,127.154358 511.736725,133.784988 502.506348,137.700394 
z"/>
<path fill="#F8F8F8" opacity="1.000000" stroke="none" 
	d="
M829.244141,139.007996 
	C827.889404,136.348694 826.998108,133.693146 826.015320,130.765152 
	C825.493774,131.152039 824.821533,131.537415 824.287964,132.063507 
	C815.884705,140.349747 805.842651,142.262283 794.879761,138.961426 
	C783.798889,135.625046 779.306763,126.566772 777.267212,116.193474 
	C775.421387,106.805161 775.565613,97.331375 778.731262,88.128510 
	C785.777100,67.645386 809.799622,62.391216 824.687134,78.050003 
	C824.996887,78.375763 825.381775,78.630005 826.468994,79.523994 
	C826.468994,67.334618 826.468994,55.836895 826.468994,44.213886 
	C830.755493,44.213886 834.398804,44.213886 838.420166,44.213886 
	C838.420166,75.645012 838.420166,107.017532 838.420166,139.011734 
	C835.576782,139.011734 832.642212,139.011734 829.244141,139.007996 
M791.385498,120.809387 
	C796.018616,130.071426 802.161560,131.931656 813.120850,129.408295 
	C822.148926,127.329590 826.609314,120.654556 826.609375,111.312721 
	C826.609375,106.660538 826.610291,102.008347 826.609131,97.356163 
	C826.607056,88.511765 819.949341,80.820274 810.833618,79.129456 
	C801.792114,77.452393 793.958191,81.835693 790.883789,90.792603 
	C787.547241,100.513382 788.059387,110.343849 791.385498,120.809387 
z"/>
<path fill="#F8F8F8" opacity="1.000000" stroke="none" 
	d="
M872.733704,121.997513 
	C878.143372,131.324799 888.951599,132.728226 897.545471,129.766830 
	C903.309570,127.780548 906.091736,123.235405 906.344421,116.910362 
	C910.262390,116.910362 913.988892,116.910362 917.930420,116.910362 
	C918.326172,123.458183 915.769714,128.577423 911.388367,133.061325 
	C901.735535,142.940201 873.059021,144.746719 862.502441,126.905403 
	C853.897949,112.363297 855.472168,87.732422 866.704163,77.045006 
	C876.606384,67.622856 888.576355,67.118340 900.653748,71.375107 
	C911.919861,75.345932 916.631348,84.770042 917.862366,96.092285 
	C918.219299,99.375603 917.917114,102.730576 917.917114,106.555664 
	C901.722229,106.555664 885.657898,106.555664 868.182495,106.555664 
	C869.793762,112.132217 871.171326,116.899902 872.733704,121.997513 
M876.564819,81.896751 
	C871.441345,85.901260 869.847351,91.540459 869.185791,97.770485 
	C881.522095,97.770485 893.774475,97.770485 906.025146,97.770485 
	C906.065979,81.216347 892.327087,73.542168 876.564819,81.896751 
z"/>
<path fill="#F7F7F7" opacity="1.000000" stroke="none" 
	d="
M676.932434,102.996292 
	C677.236511,109.451843 677.183533,115.455132 677.956055,121.350235 
	C678.590149,126.188812 682.127747,129.077393 686.953186,129.031433 
	C691.666870,128.986572 696.687195,128.793732 701.006348,127.164215 
	C707.633728,124.663841 711.890564,120.293770 711.406494,111.811539 
	C710.631042,98.224007 711.198792,84.559814 711.198792,70.564957 
	C715.425354,70.564957 719.303162,70.564957 723.494019,70.564957 
	C723.494019,93.226753 723.494019,115.790924 723.494019,138.685669 
	C719.803162,138.685669 716.075195,138.685669 712.197510,138.685669 
	C711.950806,135.941879 711.703186,133.187500 711.480469,130.710693 
	C706.304199,133.524323 701.513367,137.470322 696.074280,138.837097 
	C678.712830,143.199905 665.099854,137.204391 664.973877,116.885704 
	C664.882996,102.239166 664.719116,87.593079 664.613892,72.946602 
	C664.608154,72.146355 664.843262,71.344391 664.982361,70.438232 
	C668.910828,70.438232 672.665771,70.438232 676.932434,70.438232 
	C676.932434,81.278671 676.932434,91.887962 676.932434,102.996292 
z"/>
<path fill="#FBFBFB" opacity="1.000000" stroke="none" 
	d="
M310.944611,139.007156 
	C306.844635,139.007156 303.229950,139.007156 299.420837,139.007156 
	C299.420837,107.286491 299.420837,76.058067 299.420837,44.452934 
	C305.860229,44.452934 312.257629,44.452934 319.026794,44.452934 
	C319.026794,75.632256 319.026794,106.987038 319.026794,139.007156 
	C316.591309,139.007156 314.010620,139.007156 310.944611,139.007156 
z"/>
<path fill="#FBFBFB" opacity="1.000000" stroke="none" 
	d="
M757.923279,95.000031 
	C757.923279,109.774544 757.923279,124.049057 757.923279,138.664886 
	C754.023438,138.664886 750.303345,138.664886 746.284180,138.664886 
	C746.284180,116.127151 746.284180,93.456688 746.284180,70.497559 
	C750.018555,70.497559 753.728088,70.497559 757.923279,70.497559 
	C757.923279,78.638000 757.923279,86.569016 757.923279,95.000031 
z"/>
<path fill="#F5F5F5" opacity="1.000000" stroke="none" 
	d="
M756.355591,56.576431 
	C755.732239,56.912315 755.431885,57.058697 755.116150,57.154625 
	C750.316223,58.613079 746.695862,57.354824 745.060730,53.620255 
	C743.482910,50.016628 744.547913,46.971100 747.722717,45.064228 
	C751.148071,43.006916 754.937988,43.139824 757.642029,46.298306 
	C760.559692,49.706200 760.049988,53.299934 756.355591,56.576431 
z"/>
<path fill="#F2612B" opacity="1.000000" stroke="none" 
	d="
M135.807556,88.000031 
	C135.807404,104.987938 135.835297,121.475929 135.791321,137.963715 
	C135.776947,143.351395 133.300064,146.776535 128.996246,147.719864 
	C123.799576,148.858887 119.086060,144.765137 119.031319,138.723312 
	C118.918152,126.233490 118.994942,113.741951 118.994553,101.251114 
	C118.994057,85.096298 118.980370,68.941460 119.001221,52.786663 
	C119.009926,46.042229 122.238701,42.036659 127.495918,42.128288 
	C132.695160,42.218910 135.790588,46.245457 135.802200,53.025314 
	C135.821854,64.516853 135.807602,76.008453 135.807556,88.000031 
z"/>
<path fill="#F6622B" opacity="1.000000" stroke="none" 
	d="
M100.482399,78.720413 
	C101.229881,81.277802 102.131027,83.504761 102.146202,85.737747 
	C102.263947,103.060265 102.230705,120.383980 102.200119,137.707245 
	C102.188652,144.204483 99.014778,147.979172 93.821587,147.854645 
	C88.806046,147.734390 85.816338,144.082397 85.804665,137.848236 
	C85.771912,120.358398 85.836365,102.868279 85.758568,85.378731 
	C85.741722,81.591362 86.566872,78.323700 90.176117,76.589912 
	C93.843452,74.828201 97.302963,75.409645 100.482399,78.720413 
z"/>
<path fill="#F1612B" opacity="1.000000" stroke="none" 
	d="
M69.008270,119.294830 
	C69.007370,126.088463 69.088234,132.420761 68.980591,138.749863 
	C68.887222,144.239944 65.304070,147.971359 60.479782,147.872696 
	C55.874912,147.778534 52.349621,144.135559 52.234402,138.945862 
	C52.086525,132.285019 52.155224,125.618095 52.207565,118.954399 
	C52.256084,112.777832 55.252071,109.155655 60.329659,108.970451 
	C65.636185,108.776901 68.652542,112.204483 69.008270,119.294830 
z"/>
<path fill="#0C1011" opacity="1.000000" stroke="none" 
	d="
M241.914703,60.374687 
	C245.038422,60.505226 247.709991,60.475433 250.338928,60.795765 
	C258.876099,61.836006 263.359955,67.165451 262.999207,75.650497 
	C262.655792,83.727722 257.693054,88.751678 249.321457,89.094200 
	C243.710129,89.323784 238.081818,89.137871 232.232162,89.137871 
	C232.232162,79.617485 232.232162,70.349075 232.232162,60.374676 
	C235.270782,60.374676 238.356918,60.374676 241.914703,60.374687 
z"/>
<path fill="#0C1011" opacity="1.000000" stroke="none" 
	d="
M791.234802,120.449905 
	C788.059387,110.343849 787.547241,100.513382 790.883789,90.792603 
	C793.958191,81.835693 801.792114,77.452393 810.833618,79.129456 
	C819.949341,80.820274 826.607056,88.511765 826.609131,97.356163 
	C826.610291,102.008347 826.609375,106.660538 826.609375,111.312721 
	C826.609314,120.654556 822.148926,127.329590 813.120850,129.408295 
	C802.161560,131.931656 796.018616,130.071426 791.234802,120.449905 
z"/>
<path fill="#0B0F10" opacity="1.000000" stroke="none" 
	d="
M876.867676,81.664658 
	C892.327087,73.542168 906.065979,81.216347 906.025146,97.770485 
	C893.774475,97.770485 881.522095,97.770485 869.185791,97.770485 
	C869.847351,91.540459 871.441345,85.901260 876.867676,81.664658 
z"/>
</svg>