<svg version="1.1" id="Layer_1" xmlns="http://www.w3.org/2000/svg" xmlns:xlink="http://www.w3.org/1999/xlink" x="0px" y="0px"
	 width="100%" viewBox="0 0 933 186" enable-background="new 0 0 933 186" xml:space="preserve">
<path fill="#0A0E0F" opacity="1.000000" stroke="none" 
	d="
M691.000000,187.000000 
	C460.717987,187.000000 230.935989,187.000000 1.076996,187.000000 
	C1.076996,125.065262 1.076996,63.130398 1.076996,1.097767 
	C311.999969,1.097767 623.000000,1.097767 933.972778,1.097767 
	C933.972778,63.063992 933.972778,125.032005 933.972778,187.000000 
	C853.130371,187.000000 772.315186,187.000000 691.000000,187.000000 
M4.004307,110.500000 
	C4.004109,128.656693 4.007255,146.813400 4.002464,164.970093 
	C3.999560,175.974777 9.931790,181.995758 20.798847,181.995895 
	C68.272644,181.996536 115.746445,181.997009 163.220245,181.995499 
	C173.890671,181.995163 179.996902,175.968857 179.996887,165.450302 
	C179.996826,117.809929 179.996719,70.169563 179.997116,22.529190 
	C179.997192,12.014994 173.893036,6.004792 163.201080,6.004477 
	C115.727287,6.003078 68.253487,6.003436 20.779696,6.004173 
	C10.105811,6.004339 4.002434,12.026278 4.002840,22.547993 
	C4.003958,51.531994 4.003908,80.515999 4.004307,110.500000 
M427.212769,101.499908 
	C427.212769,113.595963 427.212769,125.692017 427.212769,137.777390 
	C434.127838,137.777390 440.393890,137.777390 446.726959,137.777390 
	C446.726959,106.162361 446.726959,74.775902 446.726959,43.078979 
	C444.651031,43.078979 442.782257,43.395279 441.058960,43.028275 
	C428.709686,40.398270 421.739990,45.814999 416.749542,56.989513 
	C412.186035,67.207970 405.666229,76.552765 399.728546,86.764099 
	C391.574005,72.925606 383.789490,59.652069 375.906860,46.437077 
	C375.131042,45.136475 373.791229,43.283413 372.648499,43.235706 
	C365.561859,42.939854 358.456696,43.086842 351.425140,43.086842 
	C351.425140,75.086807 351.425140,106.468445 351.425140,137.750519 
	C357.870270,137.750519 363.965576,137.750519 370.389435,137.750519 
	C370.389435,126.523643 370.389435,115.548080 370.389435,104.572525 
	C370.389435,93.699883 370.389435,82.827240 370.389435,71.954597 
	C372.287750,73.035378 373.190002,74.325264 373.986267,75.677521 
	C379.713440,85.404037 385.386536,95.162537 391.145966,104.869850 
	C393.848999,109.425690 404.401154,109.382698 407.024963,104.832077 
	C412.830872,94.762573 418.579315,84.659935 424.377869,74.586182 
	C425.047516,73.422821 425.886169,72.356750 427.212769,70.417938 
	C427.212769,81.186646 427.212769,90.843269 427.212769,101.499908 
M221.609726,104.499603 
	C221.609726,115.596390 221.609726,126.693184 221.609726,137.719727 
	C228.602478,137.719727 235.022476,137.719727 241.787933,137.719727 
	C241.787933,131.979965 241.787949,126.518639 241.787949,121.057320 
	C241.787949,115.605499 241.787933,110.153671 241.787933,103.956047 
	C250.126663,103.956047 257.947479,104.410271 265.696777,103.859024 
	C280.629089,102.796806 291.701752,91.996155 292.868073,78.076340 
	C294.306519,60.909664 287.152740,48.044521 271.402679,45.393230 
	C255.231049,42.670975 238.522659,43.137493 221.609772,42.183720 
	C221.609772,63.593220 221.609772,83.546394 221.609726,104.499603 
M641.366943,112.511444 
	C637.232849,123.379982 628.723755,127.483871 617.734558,128.453415 
	C600.770020,129.950104 587.715088,121.492126 584.186401,104.916595 
	C582.591064,97.422684 582.502441,89.378311 583.111145,81.693031 
	C584.352051,66.026115 594.786682,54.397602 608.250916,53.029045 
	C621.856934,51.646076 635.777283,53.345867 641.542114,72.406616 
	C645.625854,72.406616 649.676025,72.406616 653.736450,72.406616 
	C653.285950,64.640709 649.831421,57.327663 644.405273,52.311512 
	C627.716858,36.884060 594.906921,38.790070 580.276733,56.172363 
	C570.697083,67.554016 568.440857,81.201607 569.262329,95.470909 
	C570.769409,121.649452 585.766663,137.183716 611.143372,139.330002 
	C632.895325,141.169708 649.382874,130.857819 654.302002,111.498688 
	C656.022278,104.728752 655.887817,97.487518 656.627441,90.194176 
	C642.520020,90.194176 629.448730,90.194176 616.320374,90.194176 
	C616.320374,93.782318 616.320374,97.155197 616.320374,101.013000 
	C625.522827,101.013000 634.402893,101.013000 643.744751,101.013000 
	C643.018921,104.993721 642.396729,108.405975 641.366943,112.511444 
M512.707275,136.352371 
	C521.564270,132.477112 526.145081,125.747147 525.890320,116.038918 
	C525.636047,106.345177 519.605225,101.127480 511.194855,98.053833 
	C507.936768,96.863144 504.547089,96.029541 501.209778,95.059334 
	C497.237488,93.904526 493.078674,93.169624 489.354980,91.474464 
	C487.478607,90.620277 484.967285,87.729721 485.280670,86.326874 
	C485.715210,84.381821 488.279724,82.121666 490.384155,81.481201 
	C498.361145,79.053467 504.001495,82.154121 506.834625,89.683853 
	C512.507629,89.683853 518.100769,89.683853 523.692993,89.683853 
	C523.249146,81.460991 520.636230,75.968033 514.495056,72.789413 
	C500.998535,65.803772 487.157104,66.047714 474.013184,73.393707 
	C464.220703,78.866615 462.642853,93.089333 471.169647,100.295036 
	C475.900238,104.292717 482.332153,106.431656 488.226776,108.848511 
	C492.945435,110.783234 498.230377,111.404480 502.818756,113.557549 
	C504.788513,114.481842 506.847809,117.927139 506.646088,120.012207 
	C506.440216,122.140099 503.792358,125.307686 501.722992,125.756165 
	C493.229828,127.596809 484.238251,127.422714 481.819153,116.207436 
	C479.046814,116.207436 476.226501,116.207436 473.406189,116.207436 
	C470.660248,116.207436 467.914307,116.207436 465.208069,116.207436 
	C464.963074,126.891800 469.696808,133.683304 479.720825,136.946960 
	C490.457581,140.442688 501.284241,140.291840 512.707275,136.352371 
M836.075317,52.548828 
	C836.075317,61.089542 836.075317,69.630257 836.075317,79.019760 
	C821.969543,61.033978 793.214539,66.266716 787.669189,88.802704 
	C784.994629,99.671989 784.904785,110.597420 788.407959,121.253410 
	C792.689453,134.276886 802.915771,140.414047 816.490479,139.239624 
	C824.204834,138.572205 830.169800,134.869797 835.793518,129.149536 
	C836.207520,132.483261 836.542297,135.178467 836.871033,137.825394 
	C840.682739,137.825394 844.132690,137.825394 847.785583,137.825394 
	C847.785583,106.258141 847.785583,74.873795 847.785583,43.368404 
	C843.839539,43.368404 840.122192,43.368404 836.075317,43.368404 
	C836.075317,46.293419 836.075317,48.929375 836.075317,52.548828 
M866.598145,105.274506 
	C866.764648,107.430008 866.860168,109.593742 867.109192,111.739662 
	C868.676697,125.245384 877.068848,135.747696 889.752808,138.264709 
	C895.773682,139.459503 902.448914,139.419052 908.460388,138.170105 
	C921.013123,135.562119 927.468506,127.423126 927.453857,115.922333 
	C923.744690,115.922333 920.029846,115.922333 916.331848,115.922333 
	C913.183655,127.234673 906.501709,131.688339 895.426697,129.926346 
	C884.744690,128.226852 878.217834,118.756462 879.169678,105.797554 
	C891.414551,105.797554 903.701660,105.797554 915.988770,105.797554 
	C928.693359,105.797562 928.712646,105.794937 927.007385,93.253838 
	C925.474731,81.981880 920.108337,73.438042 908.852478,69.976715 
	C896.695312,66.238205 885.054260,67.087555 875.567688,76.703407 
	C868.033264,84.340508 866.671753,94.210907 866.598145,105.274506 
M721.088867,131.905197 
	C721.203430,133.843231 721.317932,135.781265 721.427979,137.642578 
	C725.510559,137.642578 729.220581,137.642578 732.710693,137.642578 
	C732.710693,114.695992 732.710693,92.114944 732.710693,69.530960 
	C728.678894,69.530960 724.952759,69.530960 720.992554,69.530960 
	C720.992554,84.659943 721.046875,99.469170 720.923462,114.276909 
	C720.908142,116.118057 720.534851,118.699623 719.319885,119.649879 
	C715.462524,122.666801 711.426025,126.528816 706.923706,127.450294 
	C692.052063,130.494049 686.372070,126.817055 686.390381,112.142822 
	C686.405884,99.652107 686.393555,87.161362 686.393555,74.670624 
	C686.393555,72.921677 686.393494,71.172729 686.393494,69.549286 
	C681.863586,69.549286 678.112183,69.549286 674.220764,69.549286 
	C674.220764,85.854805 673.828308,101.834282 674.352051,117.783676 
	C674.731628,129.343979 680.363342,136.628098 689.703003,138.426575 
	C698.555054,140.131180 707.286316,139.461472 714.793640,133.494446 
	C716.355469,132.253052 717.855103,130.927765 719.485718,129.787552 
	C719.643127,129.677490 720.529053,130.609314 721.088867,131.905197 
M328.918610,46.731228 
	C328.258636,45.517334 327.647583,43.284630 326.930908,43.250183 
	C321.018494,42.966049 315.086548,43.089550 309.352325,43.089550 
	C309.352325,75.135239 309.352325,106.524147 309.352325,137.765015 
	C315.986542,137.765015 322.263519,137.765015 328.918701,137.765015 
	C328.918701,107.581551 328.918701,77.634613 328.918610,46.731228 
M767.403931,126.467293 
	C767.403931,107.522911 767.403931,88.578529 767.403931,69.492798 
	C763.152283,69.492798 759.422729,69.492798 755.555786,69.492798 
	C755.555786,92.467415 755.555786,115.148628 755.555786,137.701874 
	C759.657043,137.701874 763.399841,137.701874 767.403931,137.701874 
	C767.403931,134.080017 767.403931,130.766693 767.403931,126.467293 
M768.426758,52.617313 
	C769.618225,49.276070 769.208618,45.799099 766.025330,44.419724 
	C763.485718,43.319279 759.784790,43.219868 757.286682,44.286247 
	C755.588318,45.011307 754.037048,48.664268 754.327942,50.740631 
	C754.619690,52.823399 756.921875,55.307991 758.979004,56.307632 
	C762.490234,58.013889 765.719055,56.465580 768.426758,52.617313 
z"/>
<path fill="#1D1D1D" opacity="1.000000" stroke="none" 
	d="
M4.004313,110.000000 
	C4.003908,80.515999 4.003958,51.531994 4.002840,22.547993 
	C4.002434,12.026278 10.105811,6.004339 20.779696,6.004173 
	C68.253487,6.003436 115.727287,6.003078 163.201080,6.004477 
	C173.893036,6.004792 179.997192,12.014994 179.997116,22.529190 
	C179.996719,70.169563 179.996826,117.809929 179.996887,165.450302 
	C179.996902,175.968857 173.890671,181.995163 163.220245,181.995499 
	C115.746445,181.997009 68.272644,181.996536 20.798847,181.995895 
	C9.931790,181.995758 3.999560,175.974777 4.002464,164.970093 
	C4.007255,146.813400 4.004109,128.656693 4.004313,110.000000 
M133.803665,58.534065 
	C133.790146,55.369930 133.975189,52.189411 133.715775,49.045563 
	C133.342178,44.517929 129.741043,41.210697 125.505920,41.129360 
	C121.047096,41.043728 117.478149,44.459961 117.027901,49.280277 
	C116.950729,50.106487 116.994484,50.944660 116.994453,51.777309 
	C116.993202,79.924255 116.992165,108.071205 116.997833,136.218155 
	C116.998070,137.382736 116.884827,138.586319 117.129593,139.704956 
	C118.050293,143.912842 120.658714,146.462570 125.003967,146.834915 
	C128.979202,147.175568 132.792786,144.093445 133.584137,139.946945 
	C133.892181,138.333008 133.795303,136.632034 133.796021,134.970673 
	C133.807037,109.821625 133.803589,84.672577 133.803665,58.534065 
M96.080719,145.737823 
	C97.455330,143.074722 99.967567,140.434082 100.020660,137.744888 
	C100.375710,119.757141 100.245003,101.758926 100.185692,83.764397 
	C100.166595,77.969604 96.972244,74.627228 91.866982,74.698578 
	C86.954102,74.767250 83.841759,78.015060 83.820251,83.530617 
	C83.750084,101.525078 83.738800,119.520233 83.820930,137.514587 
	C83.854012,144.763504 88.263992,147.916351 96.080719,145.737823 
M51.796684,111.495651 
	C51.263500,113.378288 50.322685,115.249695 50.270432,117.145592 
	C50.083004,123.946007 50.113934,130.756012 50.221634,137.559875 
	C50.308193,143.028381 53.807476,146.821152 58.539089,146.879807 
	C63.485088,146.941101 66.931519,143.085907 66.992500,137.243912 
	C67.060081,130.771027 66.939934,124.295891 67.033829,117.823654 
	C67.091362,113.858437 66.041275,110.570816 62.216129,108.787292 
	C58.429131,107.021561 55.121387,107.973763 51.796684,111.495651 
z"/>
<path fill="#FCFCFC" opacity="1.000000" stroke="none" 
	d="
M427.212769,100.999901 
	C427.212769,90.843269 427.212769,81.186646 427.212769,70.417938 
	C425.886169,72.356750 425.047516,73.422821 424.377869,74.586182 
	C418.579315,84.659935 412.830872,94.762573 407.024963,104.832077 
	C404.401154,109.382698 393.848999,109.425690 391.145966,104.869850 
	C385.386536,95.162537 379.713440,85.404037 373.986267,75.677521 
	C373.190002,74.325264 372.287750,73.035378 370.389435,71.954597 
	C370.389435,82.827240 370.389435,93.699883 370.389435,104.572525 
	C370.389435,115.548080 370.389435,126.523643 370.389435,137.750519 
	C363.965576,137.750519 357.870270,137.750519 351.425140,137.750519 
	C351.425140,106.468445 351.425140,75.086807 351.425140,43.086842 
	C358.456696,43.086842 365.561859,42.939854 372.648499,43.235706 
	C373.791229,43.283413 375.131042,45.136475 375.906860,46.437077 
	C383.789490,59.652069 391.574005,72.925606 399.728546,86.764099 
	C405.666229,76.552765 412.186035,67.207970 416.749542,56.989513 
	C421.739990,45.814999 428.709686,40.398270 441.058960,43.028275 
	C442.782257,43.395279 444.651031,43.078979 446.726959,43.078979 
	C446.726959,74.775902 446.726959,106.162361 446.726959,137.777390 
	C440.393890,137.777390 434.127838,137.777390 427.212769,137.777390 
	C427.212769,125.692017 427.212769,113.595963 427.212769,100.999901 
z"/>
<path fill="#FCFCFC" opacity="1.000000" stroke="none" 
	d="
M221.609741,103.999588 
	C221.609772,83.546394 221.609772,63.593220 221.609772,42.183720 
	C238.522659,43.137493 255.231049,42.670975 271.402679,45.393230 
	C287.152740,48.044521 294.306519,60.909664 292.868073,78.076340 
	C291.701752,91.996155 280.629089,102.796806 265.696777,103.859024 
	C257.947479,104.410271 250.126663,103.956047 241.787933,103.956047 
	C241.787933,110.153671 241.787949,115.605499 241.787949,121.057320 
	C241.787949,126.518639 241.787933,131.979965 241.787933,137.719727 
	C235.022476,137.719727 228.602478,137.719727 221.609726,137.719727 
	C221.609726,126.693184 221.609726,115.596390 221.609741,103.999588 
M258.755432,59.606346 
	C253.185867,59.606346 247.616318,59.606346 242.014618,59.606346 
	C242.014618,69.322632 242.014618,78.563599 242.014618,87.881348 
	C242.687805,88.019875 243.147751,88.196320 243.607803,88.196609 
	C248.592850,88.199821 253.583191,88.314964 258.561798,88.127052 
	C266.873474,87.813324 271.900360,83.029259 272.207153,75.408318 
	C272.597168,65.721191 268.741821,60.936825 258.755432,59.606346 
z"/>
<path fill="#F9F9F9" opacity="1.000000" stroke="none" 
	d="
M641.570801,112.164833 
	C642.396729,108.405975 643.018921,104.993721 643.744751,101.013000 
	C634.402893,101.013000 625.522827,101.013000 616.320374,101.013000 
	C616.320374,97.155197 616.320374,93.782318 616.320374,90.194176 
	C629.448730,90.194176 642.520020,90.194176 656.627441,90.194176 
	C655.887817,97.487518 656.022278,104.728752 654.302002,111.498688 
	C649.382874,130.857819 632.895325,141.169708 611.143372,139.330002 
	C585.766663,137.183716 570.769409,121.649452 569.262329,95.470909 
	C568.440857,81.201607 570.697083,67.554016 580.276733,56.172363 
	C594.906921,38.790070 627.716858,36.884060 644.405273,52.311512 
	C649.831421,57.327663 653.285950,64.640709 653.736450,72.406616 
	C649.676025,72.406616 645.625854,72.406616 641.542114,72.406616 
	C635.777283,53.345867 621.856934,51.646076 608.250916,53.029045 
	C594.786682,54.397602 584.352051,66.026115 583.111145,81.693031 
	C582.502441,89.378311 582.591064,97.422684 584.186401,104.916595 
	C587.715088,121.492126 600.770020,129.950104 617.734558,128.453415 
	C628.723755,127.483871 637.232849,123.379982 641.570801,112.164833 
z"/>
<path fill="#FAFAFA" opacity="1.000000" stroke="none" 
	d="
M512.368958,136.540039 
	C501.284241,140.291840 490.457581,140.442688 479.720825,136.946960 
	C469.696808,133.683304 464.963074,126.891800 465.208069,116.207436 
	C467.914307,116.207436 470.660248,116.207436 473.406189,116.207436 
	C476.226501,116.207436 479.046814,116.207436 481.819153,116.207436 
	C484.238251,127.422714 493.229828,127.596809 501.722992,125.756165 
	C503.792358,125.307686 506.440216,122.140099 506.646088,120.012207 
	C506.847809,117.927139 504.788513,114.481842 502.818756,113.557549 
	C498.230377,111.404480 492.945435,110.783234 488.226776,108.848511 
	C482.332153,106.431656 475.900238,104.292717 471.169647,100.295036 
	C462.642853,93.089333 464.220703,78.866615 474.013184,73.393707 
	C487.157104,66.047714 500.998535,65.803772 514.495056,72.789413 
	C520.636230,75.968033 523.249146,81.460991 523.692993,89.683853 
	C518.100769,89.683853 512.507629,89.683853 506.834625,89.683853 
	C504.001495,82.154121 498.361145,79.053467 490.384155,81.481201 
	C488.279724,82.121666 485.715210,84.381821 485.280670,86.326874 
	C484.967285,87.729721 487.478607,90.620277 489.354980,91.474464 
	C493.078674,93.169624 497.237488,93.904526 501.209778,95.059334 
	C504.547089,96.029541 507.936768,96.863144 511.194855,98.053833 
	C519.605225,101.127480 525.636047,106.345177 525.890320,116.038918 
	C526.145081,125.747147 521.564270,132.477112 512.368958,136.540039 
z"/>
<path fill="#FAFAFA" opacity="1.000000" stroke="none" 
	d="
M836.075317,52.057079 
	C836.075317,48.929375 836.075317,46.293419 836.075317,43.368404 
	C840.122192,43.368404 843.839539,43.368404 847.785583,43.368404 
	C847.785583,74.873795 847.785583,106.258141 847.785583,137.825394 
	C844.132690,137.825394 840.682739,137.825394 836.871033,137.825394 
	C836.542297,135.178467 836.207520,132.483261 835.793518,129.149536 
	C830.169800,134.869797 824.204834,138.572205 816.490479,139.239624 
	C802.915771,140.414047 792.689453,134.276886 788.407959,121.253410 
	C784.904785,110.597420 784.994629,99.671989 787.669189,88.802704 
	C793.214539,66.266716 821.969543,61.033978 836.075317,79.019760 
	C836.075317,69.630257 836.075317,61.089542 836.075317,52.057079 
M836.077271,102.517036 
	C835.985046,98.531273 836.650513,94.340218 835.638245,90.603699 
	C833.702271,83.457893 824.544006,77.883255 816.442627,78.006653 
	C808.223694,78.131844 802.622803,82.348808 799.983765,90.679680 
	C797.466187,98.627205 797.458618,106.749718 799.335938,114.788475 
	C802.008362,126.232117 808.230225,130.398514 820.030396,129.100922 
	C829.488770,128.060837 836.077271,120.218742 836.077271,110.000900 
	C836.077271,107.836273 836.077271,105.671654 836.077271,102.517036 
z"/>
<path fill="#F8F8F8" opacity="1.000000" stroke="none" 
	d="
M866.598022,104.830780 
	C866.671753,94.210907 868.033264,84.340508 875.567688,76.703407 
	C885.054260,67.087555 896.695312,66.238205 908.852478,69.976715 
	C920.108337,73.438042 925.474731,81.981880 927.007385,93.253838 
	C928.712646,105.794937 928.693359,105.797562 915.988770,105.797554 
	C903.701660,105.797554 891.414551,105.797554 879.169678,105.797554 
	C878.217834,118.756462 884.744690,128.226852 895.426697,129.926346 
	C906.501709,131.688339 913.183655,127.234673 916.331848,115.922333 
	C920.029846,115.922333 923.744690,115.922333 927.453857,115.922333 
	C927.468506,127.423126 921.013123,135.562119 908.460388,138.170105 
	C902.448914,139.419052 895.773682,139.459503 889.752808,138.264709 
	C877.068848,135.747696 868.676697,125.245384 867.109192,111.739662 
	C866.860168,109.593742 866.764648,107.430008 866.598022,104.830780 
M895.098389,77.744423 
	C884.970886,78.789322 878.613647,86.400146 879.252319,96.677895 
	C891.444214,96.677895 903.631348,96.677895 915.851196,96.677895 
	C914.080872,82.303261 908.775208,77.306175 895.098389,77.744423 
z"/>
<path fill="#FBFBFB" opacity="1.000000" stroke="none" 
	d="
M721.082825,131.481354 
	C720.529053,130.609314 719.643127,129.677490 719.485718,129.787552 
	C717.855103,130.927765 716.355469,132.253052 714.793640,133.494446 
	C707.286316,139.461472 698.555054,140.131180 689.703003,138.426575 
	C680.363342,136.628098 674.731628,129.343979 674.352051,117.783676 
	C673.828308,101.834282 674.220764,85.854805 674.220764,69.549286 
	C678.112183,69.549286 681.863586,69.549286 686.393494,69.549286 
	C686.393494,71.172729 686.393555,72.921677 686.393555,74.670624 
	C686.393555,87.161362 686.405884,99.652107 686.390381,112.142822 
	C686.372070,126.817055 692.052063,130.494049 706.923706,127.450294 
	C711.426025,126.528816 715.462524,122.666801 719.319885,119.649879 
	C720.534851,118.699623 720.908142,116.118057 720.923462,114.276909 
	C721.046875,99.469170 720.992554,84.659943 720.992554,69.530960 
	C724.952759,69.530960 728.678894,69.530960 732.710693,69.530960 
	C732.710693,92.114944 732.710693,114.695992 732.710693,137.642578 
	C729.220581,137.642578 725.510559,137.642578 721.427979,137.642578 
	C721.317932,135.781265 721.203430,133.843231 721.082825,131.481354 
z"/>
<path fill="#FDFDFD" opacity="1.000000" stroke="none" 
	d="
M328.918640,47.209450 
	C328.918701,77.634613 328.918701,107.581551 328.918701,137.765015 
	C322.263519,137.765015 315.986542,137.765015 309.352325,137.765015 
	C309.352325,106.524147 309.352325,75.135239 309.352325,43.089550 
	C315.086548,43.089550 321.018494,42.966049 326.930908,43.250183 
	C327.647583,43.284630 328.258636,45.517334 328.918640,47.209450 
z"/>
<path fill="#F8F8F8" opacity="1.000000" stroke="none" 
	d="
M767.403931,126.960327 
	C767.403931,130.766693 767.403931,134.080017 767.403931,137.701874 
	C763.399841,137.701874 759.657043,137.701874 755.555786,137.701874 
	C755.555786,115.148628 755.555786,92.467415 755.555786,69.492798 
	C759.422729,69.492798 763.152283,69.492798 767.403931,69.492798 
	C767.403931,88.578529 767.403931,107.522911 767.403931,126.960327 
z"/>
<path fill="#F4F4F4" opacity="1.000000" stroke="none" 
	d="
M768.223022,52.951649 
	C765.719055,56.465580 762.490234,58.013889 758.979004,56.307632 
	C756.921875,55.307991 754.619690,52.823399 754.327942,50.740631 
	C754.037048,48.664268 755.588318,45.011307 757.286682,44.286247 
	C759.784790,43.219868 763.485718,43.319279 766.025330,44.419724 
	C769.208618,45.799099 769.618225,49.276070 768.223022,52.951649 
z"/>
<path fill="#F2612B" opacity="1.000000" stroke="none" 
	d="
M133.803589,59.028797 
	C133.803589,84.672577 133.807037,109.821625 133.796021,134.970673 
	C133.795303,136.632034 133.892181,138.333008 133.584137,139.946945 
	C132.792786,144.093445 128.979202,147.175568 125.003967,146.834915 
	C120.658714,146.462570 118.050293,143.912842 117.129593,139.704956 
	C116.884827,138.586319 116.998070,137.382736 116.997833,136.218155 
	C116.992165,108.071205 116.993202,79.924255 116.994453,51.777309 
	C116.994484,50.944660 116.950729,50.106487 117.027901,49.280277 
	C117.478149,44.459961 121.047096,41.043728 125.505920,41.129360 
	C129.741043,41.210697 133.342178,44.517929 133.715775,49.045563 
	C133.975189,52.189411 133.790146,55.369930 133.803589,59.028797 
z"/>
<path fill="#F6622B" opacity="1.000000" stroke="none" 
	d="
M95.722710,145.895782 
	C88.263992,147.916351 83.854012,144.763504 83.820930,137.514587 
	C83.738800,119.520233 83.750084,101.525078 83.820251,83.530617 
	C83.841759,78.015060 86.954102,74.767250 91.866982,74.698578 
	C96.972244,74.627228 100.166595,77.969604 100.185692,83.764397 
	C100.245003,101.758926 100.375710,119.757141 100.020660,137.744888 
	C99.967567,140.434082 97.455330,143.074722 95.722710,145.895782 
z"/>
<path fill="#F1602B" opacity="1.000000" stroke="none" 
	d="
M52.025829,111.174469 
	C55.121387,107.973763 58.429131,107.021561 62.216129,108.787292 
	C66.041275,110.570816 67.091362,113.858437 67.033829,117.823654 
	C66.939934,124.295891 67.060081,130.771027 66.992500,137.243912 
	C66.931519,143.085907 63.485088,146.941101 58.539089,146.879807 
	C53.807476,146.821152 50.308193,143.028381 50.221634,137.559875 
	C50.113934,130.756012 50.083004,123.946007 50.270432,117.145592 
	C50.322685,115.249695 51.263500,113.378288 52.025829,111.174469 
z"/>
<path fill="#0C1011" opacity="1.000000" stroke="none" 
	d="
M259.180054,59.687691 
	C268.741821,60.936825 272.597168,65.721191 272.207153,75.408318 
	C271.900360,83.029259 266.873474,87.813324 258.561798,88.127052 
	C253.583191,88.314964 248.592850,88.199821 243.607803,88.196609 
	C243.147751,88.196320 242.687805,88.019875 242.014618,87.881348 
	C242.014618,78.563599 242.014618,69.322632 242.014618,59.606346 
	C247.616318,59.606346 253.185867,59.606346 259.180054,59.687691 
z"/>
<path fill="#0A0E0F" opacity="1.000000" stroke="none" 
	d="
M836.077271,103.012032 
	C836.077271,105.671654 836.077271,107.836273 836.077271,110.000900 
	C836.077271,120.218742 829.488770,128.060837 820.030396,129.100922 
	C808.230225,130.398514 802.008362,126.232117 799.335938,114.788475 
	C797.458618,106.749718 797.466187,98.627205 799.983765,90.679680 
	C802.622803,82.348808 808.223694,78.131844 816.442627,78.006653 
	C824.544006,77.883255 833.702271,83.457893 835.638245,90.603699 
	C836.650513,94.340218 835.985046,98.531273 836.077271,103.012032 
z"/>
<path fill="#0C1011" opacity="1.000000" stroke="none" 
	d="
M895.497742,77.675377 
	C908.775208,77.306175 914.080872,82.303261 915.851196,96.677895 
	C903.631348,96.677895 891.444214,96.677895 879.252319,96.677895 
	C878.613647,86.400146 884.970886,78.789322 895.497742,77.675377 
z"/>
</svg>