<svg version="1.1" id="Layer_1" xmlns="http://www.w3.org/2000/svg" xmlns:xlink="http://www.w3.org/1999/xlink" x="0px" y="0px"
	 width="100%" viewBox="0 0 918 186" enable-background="new 0 0 918 186" xml:space="preserve">
<path fill="#FEFEFE" opacity="1.000000" stroke="none" 
	d="
M636.000000,187.000000 
	C424.047882,187.000000 212.595764,187.000000 1.071819,187.000000 
	C1.071819,125.061989 1.071819,63.123867 1.071819,1.092872 
	C307.000000,1.092872 613.000000,1.092872 918.967896,1.092872 
	C918.967896,63.070892 918.967896,125.035454 918.967896,187.000000 
	C824.790527,187.000000 730.645264,187.000000 636.000000,187.000000 
M8.274268,9.080009 
	C6.557734,13.452176 3.381414,17.813461 3.348724,22.198183 
	C2.991326,70.135315 3.102797,118.076126 3.157543,166.015869 
	C3.163409,171.153275 4.611897,175.851700 9.260231,179.792267 
	C13.264287,181.164886 17.261566,183.708435 21.273434,183.731659 
	C69.088730,184.008392 116.906288,183.961014 164.723022,183.872040 
	C175.780457,183.851471 182.856964,176.720047 182.875732,165.630127 
	C182.956650,117.813362 182.963394,69.996284 182.869232,22.179571 
	C182.847885,11.345128 175.786484,4.162724 165.032486,4.138221 
	C117.049225,4.028888 69.064827,3.976928 21.083435,4.295128 
	C17.021027,4.322068 12.977775,7.237645 8.274268,9.080009 
M385.109985,80.339073 
	C378.558472,69.162292 372.052582,57.958218 365.398315,46.842960 
	C364.557922,45.439178 362.984711,43.570114 361.672028,43.504814 
	C354.898499,43.167835 348.099243,43.348400 341.107544,43.348400 
	C341.107544,75.067696 341.107544,106.305824 341.107544,137.682175 
	C347.285675,137.682175 353.319427,137.682175 359.978668,137.682175 
	C359.978668,115.106613 359.978668,92.847572 359.978668,69.280373 
	C367.117065,81.401199 373.627960,92.197098 379.839050,103.162811 
	C381.673248,106.401123 383.664673,107.660164 387.555847,107.861656 
	C392.973175,108.142181 396.177917,106.548096 398.268341,101.502869 
	C399.844208,97.699516 402.287323,94.253830 404.362366,90.659325 
	C408.281952,83.869682 412.214478,77.087509 416.141632,70.302223 
	C416.456787,70.406258 416.771942,70.510292 417.087097,70.614326 
	C417.087097,92.983963 417.087097,115.353600 417.087097,137.651611 
	C423.734314,137.651611 429.950043,137.651611 435.878906,137.651611 
	C435.878906,106.076393 435.878906,74.854843 435.878906,43.340790 
	C430.024689,43.340790 424.536438,43.552597 419.075012,43.261673 
	C415.777557,43.086029 414.051178,44.245911 412.440643,47.107071 
	C404.963776,60.389900 397.219025,73.521927 389.287201,87.195724 
	C387.878540,84.879456 386.685455,82.917686 385.109985,80.339073 
M211.336990,53.550503 
	C211.336990,81.636108 211.336990,109.721710 211.336990,137.712891 
	C218.287735,137.712891 224.542419,137.712891 231.265366,137.712891 
	C231.265366,126.362053 231.265366,115.299080 231.265366,104.105721 
	C238.230865,104.105721 244.729675,104.337700 251.205475,104.050636 
	C260.610718,103.633713 269.372833,101.097336 275.631042,93.535301 
	C283.926392,83.511719 284.154083,71.927086 279.619415,60.580616 
	C275.241913,49.627388 265.537598,44.689461 254.285187,44.026520 
	C240.668839,43.224312 226.987488,43.519848 213.333878,43.376312 
	C212.733902,43.370003 212.130173,43.721828 211.337006,43.965584 
	C211.337006,46.933266 211.337006,49.753506 211.336990,53.550503 
M597.442017,128.309387 
	C585.959839,126.564034 578.424561,119.891357 574.649841,109.183510 
	C570.186890,96.523003 570.212952,83.633263 575.039917,71.096870 
	C582.814514,50.904686 610.998474,45.258121 625.321167,61.017155 
	C628.106995,64.082367 629.648682,68.278336 631.789734,71.997009 
	C635.334717,71.997009 639.111877,71.997009 643.155029,71.997009 
	C642.031860,62.006596 637.383301,54.522301 629.363770,49.113831 
	C622.251282,44.317074 614.143982,42.345177 605.767578,42.185402 
	C589.093567,41.867355 573.286987,46.760811 564.633972,64.646431 
	C561.876221,70.346611 560.430908,76.877808 559.444092,83.194206 
	C557.828064,93.538002 559.036560,103.841652 563.047119,113.565987 
	C571.584167,134.265717 590.316223,141.391113 612.236633,138.610550 
	C628.573730,136.538239 639.550842,127.520302 643.585266,111.433044 
	C645.281921,104.667709 645.134155,97.439865 645.842041,90.247650 
	C631.839539,90.247650 618.922729,90.247650 605.941895,90.247650 
	C605.941895,93.598763 605.941895,96.693390 605.941895,100.269867 
	C615.049988,100.269867 623.967407,100.269867 632.855164,100.269867 
	C633.323608,116.099792 625.690247,125.765244 610.688416,128.244888 
	C606.648438,128.912659 602.422729,128.456955 597.442017,128.309387 
M454.888092,119.182594 
	C455.200409,125.651497 457.995880,131.083115 463.617035,133.978088 
	C477.467682,141.111359 491.763062,141.506622 505.669922,134.142227 
	C512.811584,130.360352 515.421753,123.555229 515.083069,115.631569 
	C514.768250,108.264740 511.006989,103.048332 504.470093,100.040100 
	C500.583466,98.251472 496.388397,97.117668 492.300751,95.785240 
	C487.263184,94.143143 482.092804,92.847618 477.199982,90.860405 
	C475.783813,90.285233 474.280304,87.808365 474.353821,86.277130 
	C474.427460,84.744133 476.112976,82.690506 477.627625,81.924942 
	C485.560120,77.915619 493.935242,81.556671 496.460083,89.791435 
	C501.937195,89.791435 507.399323,89.791435 512.970215,89.791435 
	C512.941772,82.576767 510.190277,76.960541 504.316895,73.139412 
	C493.901337,66.363251 472.970856,66.864449 462.863464,73.971649 
	C454.302368,79.991547 452.636322,93.419426 460.736206,100.019035 
	C465.914124,104.237854 472.872528,106.388466 479.219208,109.015709 
	C483.638062,110.844887 488.565857,111.479553 492.916931,113.428017 
	C497.937225,115.676170 498.136810,122.350494 493.656281,125.164154 
	C485.500305,130.285950 473.945068,126.034363 471.247833,116.743538 
	C466.653595,116.743538 461.998474,116.668709 457.350098,116.811989 
	C456.505768,116.838005 455.688934,117.756493 454.888092,119.182594 
M837.260620,71.500114 
	C837.260620,62.241055 837.260620,52.981991 837.260620,43.564857 
	C833.228821,43.564857 829.805847,43.564857 825.725586,43.564857 
	C825.725586,55.511204 825.725586,67.252045 825.725586,80.103104 
	C818.030151,69.320412 808.261169,66.888039 797.219971,69.162674 
	C786.372742,71.397362 779.976807,78.845467 777.291565,89.227386 
	C774.758667,99.020454 774.756897,109.070107 777.442810,118.840019 
	C783.299561,140.143860 806.915466,146.322327 823.010620,130.954041 
	C823.750793,130.247284 824.647461,129.704391 825.711365,128.904694 
	C826.024292,132.200241 826.285889,134.955490 826.546143,137.696320 
	C830.302368,137.696320 833.705627,137.696320 837.260620,137.696320 
	C837.260620,115.759224 837.260620,94.129677 837.260620,71.500114 
M892.947205,129.935486 
	C876.601196,131.454010 866.753540,121.755615 868.406677,105.262047 
	C876.311646,105.262047 884.270081,105.262054 892.228516,105.262054 
	C900.337646,105.262054 908.446716,105.262047 917.282654,105.262047 
	C916.894592,100.772415 916.704529,96.837357 916.189392,92.945320 
	C914.742310,82.011658 909.371155,73.585014 898.622864,70.309494 
	C886.846191,66.720528 875.228455,67.130722 865.609619,76.462540 
	C858.974365,82.899719 856.972656,91.270584 856.463013,100.030190 
	C855.123840,123.046844 865.941528,140.902939 892.273804,139.084564 
	C906.776245,138.083099 916.885986,128.804733 916.640991,116.072998 
	C913.186523,116.072998 909.725037,116.072998 905.919250,116.072998 
	C904.985840,123.302216 901.336792,128.339600 892.947205,129.935486 
M675.661316,93.500183 
	C675.661316,85.711792 675.661316,77.923401 675.661316,69.941406 
	C671.555603,69.941406 667.962646,69.941406 664.219299,69.941406 
	C664.219299,86.529655 663.413086,103.012726 664.457153,119.377747 
	C665.407715,134.277252 675.001404,141.316025 691.567505,138.276352 
	C698.334351,137.034729 704.514221,132.594101 710.995605,129.592850 
	C710.995605,131.621368 710.995605,134.677429 710.995605,137.672485 
	C715.046753,137.672485 718.603760,137.672485 721.990845,137.672485 
	C721.990845,114.920410 721.990845,92.502274 721.990845,70.032394 
	C718.153137,70.032394 714.594238,70.032394 710.737122,70.032394 
	C710.737122,83.785118 710.218140,97.272690 710.941650,110.693291 
	C711.342896,118.135963 708.162598,122.637383 702.278503,125.288864 
	C697.888245,127.267174 692.820923,128.475174 688.012024,128.623123 
	C680.515015,128.853729 676.587891,124.969170 676.088379,117.449287 
	C675.581726,109.823776 675.774719,102.151794 675.661316,93.500183 
M303.573395,138.000000 
	C308.338928,138.000000 313.104462,138.000000 317.877899,138.000000 
	C317.877899,106.236015 317.877899,75.028625 317.877899,43.687256 
	C311.446503,43.687256 305.241577,43.687256 298.975464,43.687256 
	C298.975464,75.225945 298.975464,106.425385 298.975464,137.999985 
	C300.331696,137.999985 301.461670,137.999985 303.573395,138.000000 
M744.985168,89.500298 
	C744.985168,105.570007 744.985168,121.639709 744.985168,137.797241 
	C749.055664,137.797241 752.634827,137.797241 756.388794,137.797241 
	C756.388794,115.084198 756.388794,92.589615 756.388794,69.916618 
	C752.495667,69.916618 748.891235,69.916618 744.985168,69.916618 
	C744.985168,76.240219 744.985168,82.370422 744.985168,89.500298 
M754.432007,43.884296 
	C748.867310,42.242691 744.117920,44.055603 744.103943,48.447056 
	C744.096069,50.921322 745.643677,54.492451 747.612244,55.632275 
	C750.783569,57.468472 754.878601,57.064426 757.136108,53.284248 
	C759.176758,49.867332 758.457153,46.666378 754.432007,43.884296 
z"/>
<path fill="#1D1D1D" opacity="1.000000" stroke="none" 
	d="
M8.931476,179.193893 
	C4.611897,175.851700 3.163409,171.153275 3.157543,166.015869 
	C3.102797,118.076126 2.991326,70.135315 3.348724,22.198183 
	C3.381414,17.813461 6.557734,13.452176 8.808805,9.231897 
	C10.257363,9.362668 11.215421,9.512907 12.077909,9.291260 
	C16.172392,8.239041 20.236040,6.134217 24.319271,6.113666 
	C70.117844,5.883163 115.919708,5.744950 161.716766,6.094915 
	C176.744522,6.209752 180.737793,12.182041 180.855850,24.654530 
	C181.293991,70.949753 181.313660,117.254517 180.839966,163.549042 
	C180.713623,175.896378 176.808990,181.752335 162.012039,181.883194 
	C116.049355,182.289764 70.080437,182.109131 24.115154,181.894623 
	C20.177717,181.876236 16.267782,179.841003 12.304301,178.917679 
	C11.258244,178.674011 10.059894,179.084045 8.931476,179.193893 
M134.809036,131.425659 
	C134.809067,104.943405 134.817062,78.461143 134.803650,51.978897 
	C134.800247,45.246170 131.642853,41.184898 126.453400,41.123634 
	C121.256714,41.062286 118.006645,45.141056 118.000069,51.844734 
	C117.982254,69.999222 117.992661,88.153755 117.994453,106.308266 
	C117.995506,116.967758 117.900681,127.628670 118.050468,138.286102 
	C118.118843,143.151489 121.684578,146.702026 126.086182,146.871933 
	C130.671295,147.048889 134.430176,143.432877 134.773300,138.388885 
	C134.908661,136.399155 134.804153,134.393112 134.809036,131.425659 
M85.115356,80.306625 
	C85.009514,99.118454 84.875504,117.930191 84.813293,136.742157 
	C84.791847,143.226700 88.015076,147.005508 93.208649,146.858490 
	C98.229233,146.716370 101.179581,143.085175 101.190948,136.824463 
	C101.222694,119.336380 101.147713,101.847923 101.240021,84.360275 
	C101.263641,79.886375 99.966408,76.332184 95.422157,75.057320 
	C91.064095,73.834679 87.558556,75.343697 85.115356,80.306625 
M51.188244,123.569351 
	C51.194523,128.566071 51.031982,133.570343 51.255558,138.557327 
	C51.470173,143.344406 55.185024,146.854599 59.579788,146.882736 
	C64.046730,146.911331 67.789810,143.488708 67.930435,138.639633 
	C68.147621,131.150803 68.130829,123.647682 67.944901,116.157288 
	C67.822098,111.209663 64.318832,107.975403 59.666847,107.963356 
	C55.082119,107.951485 51.621567,111.216393 51.231789,116.105408 
	C51.060226,118.257378 51.193516,120.433640 51.188244,123.569351 
z"/>
<path fill="#0C1011" opacity="1.000000" stroke="none" 
	d="
M385.301178,80.647491 
	C386.685455,82.917686 387.878540,84.879456 389.287201,87.195724 
	C397.219025,73.521927 404.963776,60.389900 412.440643,47.107071 
	C414.051178,44.245911 415.777557,43.086029 419.075012,43.261673 
	C424.536438,43.552597 430.024689,43.340790 435.878906,43.340790 
	C435.878906,74.854843 435.878906,106.076393 435.878906,137.651611 
	C429.950043,137.651611 423.734314,137.651611 417.087097,137.651611 
	C417.087097,115.353600 417.087097,92.983963 417.087097,70.614326 
	C416.771942,70.510292 416.456787,70.406258 416.141632,70.302223 
	C412.214478,77.087509 408.281952,83.869682 404.362366,90.659325 
	C402.287323,94.253830 399.844208,97.699516 398.268341,101.502869 
	C396.177917,106.548096 392.973175,108.142181 387.555847,107.861656 
	C383.664673,107.660164 381.673248,106.401123 379.839050,103.162811 
	C373.627960,92.197098 367.117065,81.401199 359.978668,69.280373 
	C359.978668,92.847572 359.978668,115.106613 359.978668,137.682175 
	C353.319427,137.682175 347.285675,137.682175 341.107544,137.682175 
	C341.107544,106.305824 341.107544,75.067696 341.107544,43.348400 
	C348.099243,43.348400 354.898499,43.167835 361.672028,43.504814 
	C362.984711,43.570114 364.557922,45.439178 365.398315,46.842960 
	C372.052582,57.958218 378.558472,69.162292 385.301178,80.647491 
z"/>
<path fill="#0D1112" opacity="1.000000" stroke="none" 
	d="
M211.337006,53.062126 
	C211.337006,49.753506 211.337006,46.933266 211.337006,43.965584 
	C212.130173,43.721828 212.733902,43.370003 213.333878,43.376312 
	C226.987488,43.519848 240.668839,43.224312 254.285187,44.026520 
	C265.537598,44.689461 275.241913,49.627388 279.619415,60.580616 
	C284.154083,71.927086 283.926392,83.511719 275.631042,93.535301 
	C269.372833,101.097336 260.610718,103.633713 251.205475,104.050636 
	C244.729675,104.337700 238.230865,104.105721 231.265366,104.105721 
	C231.265366,115.299080 231.265366,126.362053 231.265366,137.712891 
	C224.542419,137.712891 218.287735,137.712891 211.336990,137.712891 
	C211.336990,109.721710 211.336990,81.636108 211.337006,53.062126 
M231.000656,83.337296 
	C231.000656,85.076302 231.000656,86.815300 231.000656,89.113747 
	C238.227661,88.712654 244.719543,88.738487 251.095734,87.892540 
	C257.796478,87.003525 261.669342,82.187889 261.983856,75.654877 
	C262.406464,66.875397 259.486664,61.484680 252.103058,60.153297 
	C245.354553,58.936436 238.346863,59.156994 231.000656,58.716972 
	C231.000656,67.152000 231.000656,74.763039 231.000656,83.337296 
z"/>
<path fill="#0D1112" opacity="1.000000" stroke="none" 
	d="
M597.862183,128.413177 
	C602.422729,128.456955 606.648438,128.912659 610.688416,128.244888 
	C625.690247,125.765244 633.323608,116.099792 632.855164,100.269867 
	C623.967407,100.269867 615.049988,100.269867 605.941895,100.269867 
	C605.941895,96.693390 605.941895,93.598763 605.941895,90.247650 
	C618.922729,90.247650 631.839539,90.247650 645.842041,90.247650 
	C645.134155,97.439865 645.281921,104.667709 643.585266,111.433044 
	C639.550842,127.520302 628.573730,136.538239 612.236633,138.610550 
	C590.316223,141.391113 571.584167,134.265717 563.047119,113.565987 
	C559.036560,103.841652 557.828064,93.538002 559.444092,83.194206 
	C560.430908,76.877808 561.876221,70.346611 564.633972,64.646431 
	C573.286987,46.760811 589.093567,41.867355 605.767578,42.185402 
	C614.143982,42.345177 622.251282,44.317074 629.363770,49.113831 
	C637.383301,54.522301 642.031860,62.006596 643.155029,71.997009 
	C639.111877,71.997009 635.334717,71.997009 631.789734,71.997009 
	C629.648682,68.278336 628.106995,64.082367 625.321167,61.017155 
	C610.998474,45.258121 582.814514,50.904686 575.039917,71.096870 
	C570.212952,83.633263 570.186890,96.523003 574.649841,109.183510 
	C578.424561,119.891357 585.959839,126.564034 597.862183,128.413177 
z"/>
<path fill="#0C1011" opacity="1.000000" stroke="none" 
	d="
M454.873749,118.722786 
	C455.688934,117.756493 456.505768,116.838005 457.350098,116.811989 
	C461.998474,116.668709 466.653595,116.743538 471.247833,116.743538 
	C473.945068,126.034363 485.500305,130.285950 493.656281,125.164154 
	C498.136810,122.350494 497.937225,115.676170 492.916931,113.428017 
	C488.565857,111.479553 483.638062,110.844887 479.219208,109.015709 
	C472.872528,106.388466 465.914124,104.237854 460.736206,100.019035 
	C452.636322,93.419426 454.302368,79.991547 462.863464,73.971649 
	C472.970856,66.864449 493.901337,66.363251 504.316895,73.139412 
	C510.190277,76.960541 512.941772,82.576767 512.970215,89.791435 
	C507.399323,89.791435 501.937195,89.791435 496.460083,89.791435 
	C493.935242,81.556671 485.560120,77.915619 477.627625,81.924942 
	C476.112976,82.690506 474.427460,84.744133 474.353821,86.277130 
	C474.280304,87.808365 475.783813,90.285233 477.199982,90.860405 
	C482.092804,92.847618 487.263184,94.143143 492.300751,95.785240 
	C496.388397,97.117668 500.583466,98.251472 504.470093,100.040100 
	C511.006989,103.048332 514.768250,108.264740 515.083069,115.631569 
	C515.421753,123.555229 512.811584,130.360352 505.669922,134.142227 
	C491.763062,141.506622 477.467682,141.111359 463.617035,133.978088 
	C457.995880,131.083115 455.200409,125.651497 454.873749,118.722786 
z"/>
<path fill="#0C1011" opacity="1.000000" stroke="none" 
	d="
M837.260620,72.000122 
	C837.260620,94.129677 837.260620,115.759224 837.260620,137.696320 
	C833.705627,137.696320 830.302368,137.696320 826.546143,137.696320 
	C826.285889,134.955490 826.024292,132.200241 825.711365,128.904694 
	C824.647461,129.704391 823.750793,130.247284 823.010620,130.954041 
	C806.915466,146.322327 783.299561,140.143860 777.442810,118.840019 
	C774.756897,109.070107 774.758667,99.020454 777.291565,89.227386 
	C779.976807,78.845467 786.372742,71.397362 797.219971,69.162674 
	C808.261169,66.888039 818.030151,69.320412 825.725586,80.103104 
	C825.725586,67.252045 825.725586,55.511204 825.725586,43.564857 
	C829.805847,43.564857 833.228821,43.564857 837.260620,43.564857 
	C837.260620,52.981991 837.260620,62.241055 837.260620,72.000122 
M803.867126,78.003654 
	C795.795898,78.650589 791.369446,83.689087 789.180359,90.847649 
	C786.394775,99.956497 786.584351,109.196114 789.633789,118.229370 
	C792.542175,126.845024 799.224182,130.831467 808.195557,129.704483 
	C819.053711,128.340469 825.900513,120.652237 825.900513,109.823685 
	C825.900513,105.170387 826.374390,100.452133 825.748169,95.884674 
	C825.261047,92.331566 824.009399,88.560081 822.027283,85.603065 
	C818.023865,79.630783 811.958313,77.237518 803.867126,78.003654 
z"/>
<path fill="#0D1112" opacity="1.000000" stroke="none" 
	d="
M893.376831,129.897614 
	C901.336792,128.339600 904.985840,123.302216 905.919250,116.072998 
	C909.725037,116.072998 913.186523,116.072998 916.640991,116.072998 
	C916.885986,128.804733 906.776245,138.083099 892.273804,139.084564 
	C865.941528,140.902939 855.123840,123.046844 856.463013,100.030190 
	C856.972656,91.270584 858.974365,82.899719 865.609619,76.462540 
	C875.228455,67.130722 886.846191,66.720528 898.622864,70.309494 
	C909.371155,73.585014 914.742310,82.011658 916.189392,92.945320 
	C916.704529,96.837357 916.894592,100.772415 917.282654,105.262047 
	C908.446716,105.262047 900.337646,105.262054 892.228516,105.262054 
	C884.270081,105.262054 876.311646,105.262047 868.406677,105.262047 
	C866.753540,121.755615 876.601196,131.454010 893.376831,129.897614 
M880.831604,78.027031 
	C872.314270,81.416321 868.299805,87.376427 868.277649,96.756783 
	C880.645630,96.756783 893.012024,96.756783 905.389221,96.756783 
	C904.597168,81.664230 895.637939,74.638580 880.831604,78.027031 
z"/>
<path fill="#0D1112" opacity="1.000000" stroke="none" 
	d="
M675.661255,94.000168 
	C675.774719,102.151794 675.581726,109.823776 676.088379,117.449287 
	C676.587891,124.969170 680.515015,128.853729 688.012024,128.623123 
	C692.820923,128.475174 697.888245,127.267174 702.278503,125.288864 
	C708.162598,122.637383 711.342896,118.135963 710.941650,110.693291 
	C710.218140,97.272690 710.737122,83.785118 710.737122,70.032394 
	C714.594238,70.032394 718.153137,70.032394 721.990845,70.032394 
	C721.990845,92.502274 721.990845,114.920410 721.990845,137.672485 
	C718.603760,137.672485 715.046753,137.672485 710.995605,137.672485 
	C710.995605,134.677429 710.995605,131.621368 710.995605,129.592850 
	C704.514221,132.594101 698.334351,137.034729 691.567505,138.276352 
	C675.001404,141.316025 665.407715,134.277252 664.457153,119.377747 
	C663.413086,103.012726 664.219299,86.529655 664.219299,69.941406 
	C667.962646,69.941406 671.555603,69.941406 675.661316,69.941406 
	C675.661316,77.923401 675.661316,85.711792 675.661255,94.000168 
z"/>
<path fill="#0A0E0F" opacity="1.000000" stroke="none" 
	d="
M303.082520,138.000000 
	C301.461670,137.999985 300.331696,137.999985 298.975464,137.999985 
	C298.975464,106.425385 298.975464,75.225945 298.975464,43.687256 
	C305.241577,43.687256 311.446503,43.687256 317.877899,43.687256 
	C317.877899,75.028625 317.877899,106.236015 317.877899,138.000000 
	C313.104462,138.000000 308.338928,138.000000 303.082520,138.000000 
z"/>
<path fill="#272B2B" opacity="1.000000" stroke="none" 
	d="
M9.095854,179.493073 
	C10.059894,179.084045 11.258244,178.674011 12.304301,178.917679 
	C16.267782,179.841003 20.177717,181.876236 24.115154,181.894623 
	C70.080437,182.109131 116.049355,182.289764 162.012039,181.883194 
	C176.808990,181.752335 180.713623,175.896378 180.839966,163.549042 
	C181.313660,117.254517 181.293991,70.949753 180.855850,24.654530 
	C180.737793,12.182041 176.744522,6.209752 161.716766,6.094915 
	C115.919708,5.744950 70.117844,5.883163 24.319271,6.113666 
	C20.236040,6.134217 16.172392,8.239041 12.077909,9.291260 
	C11.215421,9.512907 10.257363,9.362668 9.134482,9.097518 
	C12.977775,7.237645 17.021027,4.322068 21.083435,4.295128 
	C69.064827,3.976928 117.049225,4.028888 165.032486,4.138221 
	C175.786484,4.162724 182.847885,11.345128 182.869232,22.179571 
	C182.963394,69.996284 182.956650,117.813362 182.875732,165.630127 
	C182.856964,176.720047 175.780457,183.851471 164.723022,183.872040 
	C116.906288,183.961014 69.088730,184.008392 21.273434,183.731659 
	C17.261566,183.708435 13.264287,181.164886 9.095854,179.493073 
z"/>
<path fill="#111516" opacity="1.000000" stroke="none" 
	d="
M744.985168,89.000458 
	C744.985168,82.370422 744.985168,76.240219 744.985168,69.916618 
	C748.891235,69.916618 752.495667,69.916618 756.388794,69.916618 
	C756.388794,92.589615 756.388794,115.084198 756.388794,137.797241 
	C752.634827,137.797241 749.055664,137.797241 744.985168,137.797241 
	C744.985168,121.639709 744.985168,105.570007 744.985168,89.000458 
z"/>
<path fill="#0F1314" opacity="1.000000" stroke="none" 
	d="
M754.793335,44.053226 
	C758.457153,46.666378 759.176758,49.867332 757.136108,53.284248 
	C754.878601,57.064426 750.783569,57.468472 747.612244,55.632275 
	C745.643677,54.492451 744.096069,50.921322 744.103943,48.447056 
	C744.117920,44.055603 748.867310,42.242691 754.793335,44.053226 
z"/>
<path fill="#F2612B" opacity="1.000000" stroke="none" 
	d="
M134.808960,131.910080 
	C134.804153,134.393112 134.908661,136.399155 134.773300,138.388885 
	C134.430176,143.432877 130.671295,147.048889 126.086182,146.871933 
	C121.684578,146.702026 118.118843,143.151489 118.050468,138.286102 
	C117.900681,127.628670 117.995506,116.967758 117.994453,106.308266 
	C117.992661,88.153755 117.982254,69.999222 118.000069,51.844734 
	C118.006645,45.141056 121.256714,41.062286 126.453400,41.123634 
	C131.642853,41.184898 134.800247,45.246170 134.803650,51.978897 
	C134.817062,78.461143 134.809067,104.943405 134.808960,131.910080 
z"/>
<path fill="#F6622B" opacity="1.000000" stroke="none" 
	d="
M85.267563,79.910065 
	C87.558556,75.343697 91.064095,73.834679 95.422157,75.057320 
	C99.966408,76.332184 101.263641,79.886375 101.240021,84.360275 
	C101.147713,101.847923 101.222694,119.336380 101.190948,136.824463 
	C101.179581,143.085175 98.229233,146.716370 93.208649,146.858490 
	C88.015076,147.005508 84.791847,143.226700 84.813293,136.742157 
	C84.875504,117.930191 85.009514,99.118454 85.267563,79.910065 
z"/>
<path fill="#F1602B" opacity="1.000000" stroke="none" 
	d="
M51.188320,123.084114 
	C51.193516,120.433640 51.060226,118.257378 51.231789,116.105408 
	C51.621567,111.216393 55.082119,107.951485 59.666847,107.963356 
	C64.318832,107.975403 67.822098,111.209663 67.944901,116.157288 
	C68.130829,123.647682 68.147621,131.150803 67.930435,138.639633 
	C67.789810,143.488708 64.046730,146.911331 59.579788,146.882736 
	C55.185024,146.854599 51.470173,143.344406 51.255558,138.557327 
	C51.031982,133.570343 51.194523,128.566071 51.188320,123.084114 
z"/>
<path fill="#FBFBFB" opacity="1.000000" stroke="none" 
	d="
M231.000656,82.855690 
	C231.000656,74.763039 231.000656,67.152000 231.000656,58.716972 
	C238.346863,59.156994 245.354553,58.936436 252.103058,60.153297 
	C259.486664,61.484680 262.406464,66.875397 261.983856,75.654877 
	C261.669342,82.187889 257.796478,87.003525 251.095734,87.892540 
	C244.719543,88.738487 238.227661,88.712654 231.000656,89.113747 
	C231.000656,86.815300 231.000656,85.076302 231.000656,82.855690 
z"/>
<path fill="#FCFCFC" opacity="1.000000" stroke="none" 
	d="
M804.305176,78.001999 
	C811.958313,77.237518 818.023865,79.630783 822.027283,85.603065 
	C824.009399,88.560081 825.261047,92.331566 825.748169,95.884674 
	C826.374390,100.452133 825.900513,105.170387 825.900513,109.823685 
	C825.900513,120.652237 819.053711,128.340469 808.195557,129.704483 
	C799.224182,130.831467 792.542175,126.845024 789.633789,118.229370 
	C786.584351,109.196114 786.394775,99.956497 789.180359,90.847649 
	C791.369446,83.689087 795.795898,78.650589 804.305176,78.001999 
z"/>
<path fill="#FBFBFB" opacity="1.000000" stroke="none" 
	d="
M881.233521,77.961464 
	C895.637939,74.638580 904.597168,81.664230 905.389221,96.756783 
	C893.012024,96.756783 880.645630,96.756783 868.277649,96.756783 
	C868.299805,87.376427 872.314270,81.416321 881.233521,77.961464 
z"/>
</svg>