<svg version="1.1" id="Layer_1" xmlns="http://www.w3.org/2000/svg" xmlns:xlink="http://www.w3.org/1999/xlink" x="0px" y="0px"
	 width="100%" viewBox="0 0 930 186" enable-background="new 0 0 930 186" xml:space="preserve">
<path fill="#FEFEFE" opacity="1.000000" stroke="none" 
	d="
M648.000000,187.000000 
	C432.048248,187.000000 216.596512,187.000000 1.072387,187.000000 
	C1.072387,125.062218 1.072387,63.124321 1.072387,1.093213 
	C311.000000,1.093213 621.000000,1.093213 930.968262,1.093213 
	C930.968262,63.070141 930.968262,125.035080 930.968262,187.000000 
	C836.790955,187.000000 742.645508,187.000000 648.000000,187.000000 
M176.740036,9.207239 
	C172.743713,7.834621 168.754166,5.290924 164.750061,5.267837 
	C116.853851,4.991676 68.954742,4.976175 21.059063,5.294644 
	C17.004639,5.321603 12.969422,8.237082 8.275608,10.077748 
	C6.558305,14.449740 3.380562,18.810841 3.347860,23.195398 
	C2.990322,71.133652 3.102072,119.075607 3.156266,167.016479 
	C3.162074,172.155167 4.611875,176.852203 9.260024,180.792816 
	C13.256340,182.165421 17.245905,184.709076 21.250000,184.732162 
	C69.146225,185.008331 117.045364,185.023834 164.941071,184.705353 
	C168.995499,184.678406 173.030701,181.762878 177.724503,179.922165 
	C179.441772,175.550171 182.619446,171.189056 182.652161,166.804489 
	C183.009689,118.866310 182.897934,70.924423 182.843735,22.983624 
	C182.837921,17.844938 181.388199,13.147887 176.740036,9.207239 
M448.005829,86.500000 
	C448.005829,72.565704 448.005829,58.631405 448.005829,44.338490 
	C441.639557,44.338490 435.828003,44.524952 430.037048,44.260395 
	C427.109650,44.126663 425.586487,45.212368 424.199860,47.652203 
	C417.226318,59.922363 410.096039,72.103523 403.005188,84.306862 
	C402.315308,85.494141 401.518646,86.619370 400.593170,88.048935 
	C392.552795,74.369919 384.843201,61.178902 377.022064,48.054333 
	C376.168884,46.622681 374.723236,44.576309 373.467224,44.513302 
	C366.550812,44.166374 359.607880,44.347542 352.637482,44.347542 
	C352.637482,76.260201 352.637482,107.505196 352.637482,138.780029 
	C358.875854,138.780029 364.812408,138.780029 371.235748,138.780029 
	C371.235748,116.228317 371.235748,93.897346 371.235748,71.566376 
	C378.808319,82.753830 385.482452,94.176765 392.213684,105.565994 
	C394.989746,110.263130 405.281921,110.118019 408.022034,105.370934 
	C413.998596,95.016830 419.935211,84.639664 425.917847,74.289101 
	C426.489777,73.299583 427.270477,72.430717 428.727173,70.460388 
	C428.727173,94.106339 428.727173,116.342064 428.727173,138.715942 
	C435.343231,138.715942 441.563416,138.715942 448.005829,138.715942 
	C448.005829,121.451347 448.005829,104.475670 448.005829,86.500000 
M222.897797,98.499969 
	C222.897797,111.918877 222.897797,125.337784 222.897797,138.656082 
	C229.711227,138.656082 235.936859,138.656082 242.257706,138.656082 
	C242.257706,132.815231 242.257721,127.320229 242.257721,121.825226 
	C242.257721,116.382210 242.257706,110.939201 242.257706,105.074028 
	C249.792877,105.074028 256.760193,105.290573 263.709839,105.031822 
	C281.724915,104.361069 293.468170,92.745598 293.655273,75.676804 
	C293.854218,57.533932 282.832031,45.681122 264.317505,44.840790 
	C252.020859,44.282669 239.689865,44.473743 227.373978,44.357910 
	C225.950272,44.344521 224.524857,44.513554 222.897797,44.610012 
	C222.897797,62.539173 222.897797,80.019562 222.897797,98.499969 
M622.552429,129.312881 
	C606.074463,131.806992 593.484985,126.464272 587.652527,113.569839 
	C580.931396,98.710556 581.061157,83.499733 588.104065,68.747498 
	C593.398804,57.657188 605.275208,51.974045 618.596924,53.311321 
	C631.257385,54.582222 638.939026,60.879032 642.564148,72.991516 
	C646.489197,72.991516 650.421631,72.991516 655.642822,72.991516 
	C653.461304,67.816704 652.177856,62.929958 649.560364,58.912437 
	C642.039734,47.369507 630.141663,43.620731 617.265015,43.221188 
	C598.541870,42.640232 582.245544,49.488785 574.388245,69.223000 
	C569.913818,80.460930 569.572998,92.209488 571.571960,104.029243 
	C573.039490,112.706352 576.342896,120.584732 582.416565,127.138573 
	C592.988220,138.546005 606.595459,141.102798 621.197632,139.947647 
	C650.138672,137.658188 659.649719,113.138672 656.310974,91.357056 
	C643.194824,91.357056 630.124634,91.357056 617.274902,91.357056 
	C617.274902,94.831627 617.274902,97.941177 617.274902,101.538887 
	C626.597839,101.538887 635.648254,101.538887 644.677795,101.538887 
	C644.485962,116.992424 636.957336,126.556976 622.552429,129.312881 
M510.876648,91.005806 
	C515.297241,91.005806 519.717773,91.005806 524.222473,91.005806 
	C524.452393,82.151428 520.742737,76.180138 513.382385,72.914711 
	C501.866608,67.805740 490.082550,68.154144 478.491150,72.762489 
	C471.804047,75.421036 467.680145,80.323601 467.339752,87.850563 
	C466.989929,95.585999 470.053253,101.598076 477.024323,104.970558 
	C481.606995,107.187599 486.605377,108.561722 491.452240,110.211563 
	C495.838287,111.704559 500.516937,112.586975 504.570251,114.693542 
	C506.346710,115.616806 507.791595,118.943710 507.721832,121.125916 
	C507.659851,123.064201 505.713165,125.775543 503.876343,126.681320 
	C495.366058,130.877884 485.745087,126.739212 482.649353,117.963409 
	C477.209564,117.963409 471.762543,117.963409 466.305176,117.963409 
	C466.840851,126.997147 469.654388,132.620392 476.326019,135.738724 
	C489.354767,141.828369 502.721527,142.067184 515.813599,135.991196 
	C523.322937,132.506134 526.611694,125.862091 526.612061,117.746246 
	C526.612427,109.608299 522.689087,103.718376 515.171204,100.659599 
	C510.435089,98.732651 505.415558,97.507561 500.538818,95.919518 
	C496.455627,94.589897 492.204132,93.580322 488.381073,91.706841 
	C484.906097,90.003952 484.718903,86.255486 487.370331,83.849396 
	C492.683563,79.027763 504.684448,81.990120 507.134857,88.596992 
	C507.511078,89.611397 509.000580,90.212883 510.876648,91.005806 
M849.009033,88.500000 
	C849.009033,73.904198 849.009033,59.308395 849.009033,44.632378 
	C844.892395,44.632378 841.324463,44.632378 837.095093,44.632378 
	C837.095093,56.541962 837.095093,68.162148 837.095093,80.495094 
	C827.903748,70.348045 819.078796,67.305115 807.997925,70.259132 
	C796.852173,73.230453 790.184570,81.013603 788.560364,91.949066 
	C787.312866,100.347946 787.349243,109.218788 788.558472,117.629021 
	C790.022522,127.812172 795.503235,136.088120 806.237793,139.007233 
	C817.370056,142.034454 827.287415,139.590714 835.446777,131.108505 
	C835.839294,130.700516 836.384949,130.439957 837.440186,129.707581 
	C837.668884,133.075058 837.856323,135.835007 838.051270,138.705139 
	C841.708069,138.705139 845.259644,138.705139 849.009033,138.705139 
	C849.009033,122.101326 849.009033,105.800667 849.009033,88.500000 
M927.937073,94.014626 
	C927.725342,93.210747 927.481323,92.413818 927.306885,91.601913 
	C924.975586,80.753410 918.893311,73.174225 907.845337,70.656982 
	C896.129517,67.987595 884.868774,68.780968 876.177490,78.403870 
	C868.917053,86.442604 867.742310,96.476021 867.872375,106.839104 
	C868.196594,132.689423 890.221680,147.384827 914.203857,137.676666 
	C923.162170,134.050262 928.321411,126.446320 927.981628,117.125473 
	C924.397522,117.125473 920.803894,117.125473 917.236572,117.125473 
	C915.598328,128.041550 909.000793,132.409134 896.551331,130.982346 
	C885.813721,129.751755 878.555542,119.349747 879.750671,106.302139 
	C895.739258,106.302139 911.787659,106.302139 928.030457,106.302139 
	C928.030457,102.155075 928.030457,98.536194 927.937073,94.014626 
M719.647339,121.869316 
	C714.119080,127.600052 707.334961,130.192764 699.430786,129.779129 
	C692.505798,129.416718 689.005371,126.598358 687.736450,119.803291 
	C687.072083,116.245636 687.150513,112.524284 687.131714,108.875626 
	C687.066956,96.261475 687.106812,83.646790 687.106812,70.976318 
	C682.988342,70.976318 679.397034,70.976318 676.032104,70.976318 
	C676.032104,88.329674 675.547668,105.460976 676.253174,122.543114 
	C676.567383,130.151245 680.923462,136.542465 688.975464,138.744217 
	C698.387451,141.317856 707.439636,140.428101 715.516968,134.363388 
	C717.661804,132.753006 719.732056,131.043289 722.139526,129.139587 
	C722.437378,132.681229 722.687195,135.652328 722.947937,138.752777 
	C726.551453,138.752777 730.131470,138.752777 733.661438,138.752777 
	C733.661438,115.946930 733.661438,93.396187 733.661438,70.911087 
	C729.691223,70.911087 726.067017,70.911087 721.993896,70.911087 
	C721.993896,72.695816 721.993896,74.325935 721.993896,75.956055 
	C721.993896,89.121552 722.069031,102.287949 721.912048,115.451584 
	C721.888855,117.402084 720.769958,119.339531 719.647339,121.869316 
M309.990692,46.830051 
	C309.990692,77.535912 309.990692,108.241768 309.990692,138.642853 
	C316.968842,138.642853 323.205200,138.642853 329.320831,138.642853 
	C329.320831,107.070206 329.320831,75.866333 329.320831,44.338009 
	C323.338837,44.338009 317.700958,44.284168 312.066895,44.406719 
	C311.369293,44.421890 310.692078,45.375320 309.990692,46.830051 
M768.090698,137.312622 
	C768.090698,115.206795 768.090698,93.100967 768.090698,71.129814 
	C763.965820,71.129814 760.418396,71.129814 757.051636,71.129814 
	C757.051636,93.921860 757.051636,116.331535 757.051636,139.304062 
	C760.930115,138.941116 764.475769,138.609299 768.090698,137.312622 
M763.202087,57.393597 
	C766.814331,57.123123 769.583008,55.199528 769.389893,51.656410 
	C769.263000,49.328571 767.554382,45.958336 765.659668,45.149052 
	C763.429993,44.196678 759.876404,44.846535 757.585632,46.080395 
	C756.148010,46.854729 755.230225,50.043205 755.396423,52.038860 
	C755.722717,55.956478 758.897461,57.283333 763.202087,57.393597 
z"/>
<path fill="#1E1D1D" opacity="1.000000" stroke="none" 
	d="
M8.931149,180.194519 
	C4.611875,176.852203 3.162074,172.155167 3.156266,167.016479 
	C3.102072,119.075607 2.990322,71.133652 3.347860,23.195398 
	C3.380562,18.810841 6.558305,14.449740 8.809086,10.230718 
	C10.386265,10.261889 11.456451,10.247929 12.468986,9.999238 
	C16.418196,9.029262 20.345240,7.118361 24.287483,7.100592 
	C70.164948,6.893799 116.043968,6.900661 161.921570,7.092694 
	C165.717178,7.108582 169.489380,8.956131 173.306595,9.797750 
	C174.503113,10.061560 175.811661,9.817269 177.068939,9.805552 
	C181.388199,13.147887 182.837921,17.844938 182.843735,22.983624 
	C182.897934,70.924423 183.009689,118.866310 182.652161,166.804489 
	C182.619446,171.189056 179.441772,175.550171 177.191055,179.769501 
	C175.613800,179.740280 174.543900,179.757416 173.530777,180.005936 
	C169.581055,180.974747 165.653183,182.881897 161.710266,182.899658 
	C115.834602,183.106110 69.957390,183.099228 24.081593,182.907486 
	C20.285294,182.891632 16.512293,181.047485 12.694558,180.206802 
	C11.497252,179.943130 10.188754,180.184387 8.931149,180.194519 
M117.994316,137.186401 
	C118.177071,143.985107 121.332687,147.958939 126.487099,147.881287 
	C131.663788,147.803299 134.770782,143.736359 134.808487,136.987762 
	C134.811295,136.488037 134.808823,135.988266 134.808823,135.488525 
	C134.808823,108.502304 134.810333,81.516090 134.805161,54.529869 
	C134.804840,52.865097 134.928116,51.174511 134.688995,49.540554 
	C134.046600,45.151211 130.173477,41.928646 126.002457,42.132565 
	C121.984596,42.328999 118.581276,45.560669 118.074455,49.805256 
	C117.897766,51.285065 117.996834,52.799690 117.996658,54.298412 
	C117.993446,81.617798 117.994316,108.937180 117.994316,137.186401 
M88.000648,77.276108 
	C86.933258,79.932968 84.983940,82.575821 84.941467,85.248978 
	C84.663635,102.735870 84.778770,120.229347 84.808578,137.720612 
	C84.819649,144.220490 87.994995,147.992294 93.190514,147.858170 
	C98.214218,147.728470 101.178642,144.094162 101.190155,137.839340 
	C101.222359,120.348083 100.902000,102.849091 101.347763,85.369148 
	C101.528687,78.274788 95.008080,73.203362 88.000648,77.276108 
M51.188957,119.824997 
	C51.189087,125.991631 51.121056,132.159241 51.209164,138.324615 
	C51.291656,144.096802 54.928295,148.024139 59.853741,147.875549 
	C64.688225,147.729736 67.913971,144.046997 67.987755,138.358322 
	C68.069885,132.026077 68.026993,125.691872 68.002296,119.358665 
	C67.976303,112.693146 65.135414,109.092995 59.860722,108.965561 
	C54.595634,108.838356 51.598499,112.278526 51.188957,119.824997 
z"/>
<path fill="#0D1112" opacity="1.000000" stroke="none" 
	d="
M448.005829,87.000000 
	C448.005829,104.475670 448.005829,121.451347 448.005829,138.715942 
	C441.563416,138.715942 435.343231,138.715942 428.727173,138.715942 
	C428.727173,116.342064 428.727173,94.106339 428.727173,70.460388 
	C427.270477,72.430717 426.489777,73.299583 425.917847,74.289101 
	C419.935211,84.639664 413.998596,95.016830 408.022034,105.370934 
	C405.281921,110.118019 394.989746,110.263130 392.213684,105.565994 
	C385.482452,94.176765 378.808319,82.753830 371.235748,71.566376 
	C371.235748,93.897346 371.235748,116.228317 371.235748,138.780029 
	C364.812408,138.780029 358.875854,138.780029 352.637482,138.780029 
	C352.637482,107.505196 352.637482,76.260201 352.637482,44.347542 
	C359.607880,44.347542 366.550812,44.166374 373.467224,44.513302 
	C374.723236,44.576309 376.168884,46.622681 377.022064,48.054333 
	C384.843201,61.178902 392.552795,74.369919 400.593170,88.048935 
	C401.518646,86.619370 402.315308,85.494141 403.005188,84.306862 
	C410.096039,72.103523 417.226318,59.922363 424.199860,47.652203 
	C425.586487,45.212368 427.109650,44.126663 430.037048,44.260395 
	C435.828003,44.524952 441.639557,44.338490 448.005829,44.338490 
	C448.005829,58.631405 448.005829,72.565704 448.005829,87.000000 
z"/>
<path fill="#0B0F10" opacity="1.000000" stroke="none" 
	d="
M222.897797,97.999962 
	C222.897797,80.019562 222.897797,62.539173 222.897797,44.610012 
	C224.524857,44.513554 225.950272,44.344521 227.373978,44.357910 
	C239.689865,44.473743 252.020859,44.282669 264.317505,44.840790 
	C282.832031,45.681122 293.854218,57.533932 293.655273,75.676804 
	C293.468170,92.745598 281.724915,104.361069 263.709839,105.031822 
	C256.760193,105.290573 249.792877,105.074028 242.257706,105.074028 
	C242.257706,110.939201 242.257721,116.382210 242.257721,121.825226 
	C242.257721,127.320229 242.257706,132.815231 242.257706,138.656082 
	C235.936859,138.656082 229.711227,138.656082 222.897797,138.656082 
	C222.897797,125.337784 222.897797,111.918877 222.897797,97.999962 
M273.674683,72.939644 
	C271.831970,64.931297 268.440979,61.122173 261.019440,60.405529 
	C254.972061,59.821579 248.823380,60.286800 242.518478,60.286800 
	C242.518478,70.147202 242.518478,79.699791 242.518478,89.512299 
	C248.566238,89.512299 254.396759,90.035576 260.096619,89.395561 
	C269.815735,88.304237 273.484558,83.723122 273.674683,72.939644 
z"/>
<path fill="#0C1011" opacity="1.000000" stroke="none" 
	d="
M622.964355,129.203979 
	C636.957336,126.556976 644.485962,116.992424 644.677795,101.538887 
	C635.648254,101.538887 626.597839,101.538887 617.274902,101.538887 
	C617.274902,97.941177 617.274902,94.831627 617.274902,91.357056 
	C630.124634,91.357056 643.194824,91.357056 656.310974,91.357056 
	C659.649719,113.138672 650.138672,137.658188 621.197632,139.947647 
	C606.595459,141.102798 592.988220,138.546005 582.416565,127.138573 
	C576.342896,120.584732 573.039490,112.706352 571.571960,104.029243 
	C569.572998,92.209488 569.913818,80.460930 574.388245,69.223000 
	C582.245544,49.488785 598.541870,42.640232 617.265015,43.221188 
	C630.141663,43.620731 642.039734,47.369507 649.560364,58.912437 
	C652.177856,62.929958 653.461304,67.816704 655.642822,72.991516 
	C650.421631,72.991516 646.489197,72.991516 642.564148,72.991516 
	C638.939026,60.879032 631.257385,54.582222 618.596924,53.311321 
	C605.275208,51.974045 593.398804,57.657188 588.104065,68.747498 
	C581.061157,83.499733 580.931396,98.710556 587.652527,113.569839 
	C593.484985,126.464272 606.074463,131.806992 622.964355,129.203979 
z"/>
<path fill="#0D1112" opacity="1.000000" stroke="none" 
	d="
M510.425934,91.005569 
	C509.000580,90.212883 507.511078,89.611397 507.134857,88.596992 
	C504.684448,81.990120 492.683563,79.027763 487.370331,83.849396 
	C484.718903,86.255486 484.906097,90.003952 488.381073,91.706841 
	C492.204132,93.580322 496.455627,94.589897 500.538818,95.919518 
	C505.415558,97.507561 510.435089,98.732651 515.171204,100.659599 
	C522.689087,103.718376 526.612427,109.608299 526.612061,117.746246 
	C526.611694,125.862091 523.322937,132.506134 515.813599,135.991196 
	C502.721527,142.067184 489.354767,141.828369 476.326019,135.738724 
	C469.654388,132.620392 466.840851,126.997147 466.305176,117.963409 
	C471.762543,117.963409 477.209564,117.963409 482.649353,117.963409 
	C485.745087,126.739212 495.366058,130.877884 503.876343,126.681320 
	C505.713165,125.775543 507.659851,123.064201 507.721832,121.125916 
	C507.791595,118.943710 506.346710,115.616806 504.570251,114.693542 
	C500.516937,112.586975 495.838287,111.704559 491.452240,110.211563 
	C486.605377,108.561722 481.606995,107.187599 477.024323,104.970558 
	C470.053253,101.598076 466.989929,95.585999 467.339752,87.850563 
	C467.680145,80.323601 471.804047,75.421036 478.491150,72.762489 
	C490.082550,68.154144 501.866608,67.805740 513.382385,72.914711 
	C520.742737,76.180138 524.452393,82.151428 524.222473,91.005806 
	C519.717773,91.005806 515.297241,91.005806 510.425934,91.005569 
z"/>
<path fill="#0E1213" opacity="1.000000" stroke="none" 
	d="
M849.009033,89.000000 
	C849.009033,105.800667 849.009033,122.101326 849.009033,138.705139 
	C845.259644,138.705139 841.708069,138.705139 838.051270,138.705139 
	C837.856323,135.835007 837.668884,133.075058 837.440186,129.707581 
	C836.384949,130.439957 835.839294,130.700516 835.446777,131.108505 
	C827.287415,139.590714 817.370056,142.034454 806.237793,139.007233 
	C795.503235,136.088120 790.022522,127.812172 788.558472,117.629021 
	C787.349243,109.218788 787.312866,100.347946 788.560364,91.949066 
	C790.184570,81.013603 796.852173,73.230453 807.997925,70.259132 
	C819.078796,67.305115 827.903748,70.348045 837.095093,80.495094 
	C837.095093,68.162148 837.095093,56.541962 837.095093,44.632378 
	C841.324463,44.632378 844.892395,44.632378 849.009033,44.632378 
	C849.009033,59.308395 849.009033,73.904198 849.009033,89.000000 
M821.567871,130.291443 
	C832.706726,127.477921 837.339355,121.600616 837.339355,110.282570 
	C837.339355,105.950142 836.694275,101.496895 837.478333,97.311325 
	C838.949036,89.459465 828.815796,80.216286 822.525940,79.131317 
	C812.028931,77.320625 804.414551,81.281548 801.045898,90.818130 
	C798.257263,98.713142 798.323547,106.847389 799.979980,114.944649 
	C802.460815,127.072212 808.411072,131.435974 821.567871,130.291443 
z"/>
<path fill="#0D1112" opacity="1.000000" stroke="none" 
	d="
M927.983765,94.465973 
	C928.030457,98.536194 928.030457,102.155075 928.030457,106.302139 
	C911.787659,106.302139 895.739258,106.302139 879.750671,106.302139 
	C878.555542,119.349747 885.813721,129.751755 896.551331,130.982346 
	C909.000793,132.409134 915.598328,128.041550 917.236572,117.125473 
	C920.803894,117.125473 924.397522,117.125473 927.981628,117.125473 
	C928.321411,126.446320 923.162170,134.050262 914.203857,137.676666 
	C890.221680,147.384827 868.196594,132.689423 867.872375,106.839104 
	C867.742310,96.476021 868.917053,86.442604 876.177490,78.403870 
	C884.868774,68.780968 896.129517,67.987595 907.845337,70.656982 
	C918.893311,73.174225 924.975586,80.753410 927.306885,91.601913 
	C927.481323,92.413818 927.725342,93.210747 927.983765,94.465973 
M912.620544,83.946373 
	C906.471802,77.531776 898.922852,76.642929 891.098755,79.474907 
	C882.925354,82.433350 880.143372,89.430908 879.521118,97.786095 
	C892.040955,97.786095 904.411072,97.786095 918.136108,97.786095 
	C916.273926,92.961830 914.652954,88.762390 912.620544,83.946373 
z"/>
<path fill="#0D1112" opacity="1.000000" stroke="none" 
	d="
M719.902649,121.576164 
	C720.769958,119.339531 721.888855,117.402084 721.912048,115.451584 
	C722.069031,102.287949 721.993896,89.121552 721.993896,75.956055 
	C721.993896,74.325935 721.993896,72.695816 721.993896,70.911087 
	C726.067017,70.911087 729.691223,70.911087 733.661438,70.911087 
	C733.661438,93.396187 733.661438,115.946930 733.661438,138.752777 
	C730.131470,138.752777 726.551453,138.752777 722.947937,138.752777 
	C722.687195,135.652328 722.437378,132.681229 722.139526,129.139587 
	C719.732056,131.043289 717.661804,132.753006 715.516968,134.363388 
	C707.439636,140.428101 698.387451,141.317856 688.975464,138.744217 
	C680.923462,136.542465 676.567383,130.151245 676.253174,122.543114 
	C675.547668,105.460976 676.032104,88.329674 676.032104,70.976318 
	C679.397034,70.976318 682.988342,70.976318 687.106812,70.976318 
	C687.106812,83.646790 687.066956,96.261475 687.131714,108.875626 
	C687.150513,112.524284 687.072083,116.245636 687.736450,119.803291 
	C689.005371,126.598358 692.505798,129.416718 699.430786,129.779129 
	C707.334961,130.192764 714.119080,127.600052 719.902649,121.576164 
z"/>
<path fill="#0F1314" opacity="1.000000" stroke="none" 
	d="
M309.998047,46.362015 
	C310.692078,45.375320 311.369293,44.421890 312.066895,44.406719 
	C317.700958,44.284168 323.338837,44.338009 329.320831,44.338009 
	C329.320831,75.866333 329.320831,107.070206 329.320831,138.642853 
	C323.205200,138.642853 316.968842,138.642853 309.990692,138.642853 
	C309.990692,108.241768 309.990692,77.535912 309.998047,46.362015 
z"/>
<path fill="#090D0E" opacity="1.000000" stroke="none" 
	d="
M768.056030,137.795059 
	C764.475769,138.609299 760.930115,138.941116 757.051636,139.304062 
	C757.051636,116.331535 757.051636,93.921860 757.051636,71.129814 
	C760.418396,71.129814 763.965820,71.129814 768.090698,71.129814 
	C768.090698,93.100967 768.090698,115.206795 768.056030,137.795059 
z"/>
<path fill="#272B2B" opacity="1.000000" stroke="none" 
	d="
M9.095587,180.493668 
	C10.188754,180.184387 11.497252,179.943130 12.694558,180.206802 
	C16.512293,181.047485 20.285294,182.891632 24.081593,182.907486 
	C69.957390,183.099228 115.834602,183.106110 161.710266,182.899658 
	C165.653183,182.881897 169.581055,180.974747 173.530777,180.005936 
	C174.543900,179.757416 175.613800,179.740280 176.866211,179.903061 
	C173.030701,181.762878 168.995499,184.678406 164.941071,184.705353 
	C117.045364,185.023834 69.146225,185.008331 21.250000,184.732162 
	C17.245905,184.709076 13.256340,182.165421 9.095587,180.493668 
z"/>
<path fill="#272B2B" opacity="1.000000" stroke="none" 
	d="
M176.904480,9.506395 
	C175.811661,9.817269 174.503113,10.061560 173.306595,9.797750 
	C169.489380,8.956131 165.717178,7.108582 161.921570,7.092694 
	C116.043968,6.900661 70.164948,6.893799 24.287483,7.100592 
	C20.345240,7.118361 16.418196,9.029262 12.468986,9.999238 
	C11.456451,10.247929 10.386265,10.261889 9.133924,10.097164 
	C12.969422,8.237082 17.004639,5.321603 21.059063,5.294644 
	C68.954742,4.976175 116.853851,4.991676 164.750061,5.267837 
	C168.754166,5.290924 172.743713,7.834621 176.904480,9.506395 
z"/>
<path fill="#111516" opacity="1.000000" stroke="none" 
	d="
M762.842529,57.502159 
	C758.897461,57.283333 755.722717,55.956478 755.396423,52.038860 
	C755.230225,50.043205 756.148010,46.854729 757.585632,46.080395 
	C759.876404,44.846535 763.429993,44.196678 765.659668,45.149052 
	C767.554382,45.958336 769.263000,49.328571 769.389893,51.656410 
	C769.583008,55.199528 766.814331,57.123123 762.842529,57.502159 
z"/>
<path fill="#F2612B" opacity="1.000000" stroke="none" 
	d="
M117.994308,136.721481 
	C117.994316,108.937180 117.993446,81.617798 117.996658,54.298412 
	C117.996834,52.799690 117.897766,51.285065 118.074455,49.805256 
	C118.581276,45.560669 121.984596,42.328999 126.002457,42.132565 
	C130.173477,41.928646 134.046600,45.151211 134.688995,49.540554 
	C134.928116,51.174511 134.804840,52.865097 134.805161,54.529869 
	C134.810333,81.516090 134.808823,108.502304 134.808823,135.488525 
	C134.808823,135.988266 134.811295,136.488037 134.808487,136.987762 
	C134.770782,143.736359 131.663788,147.803299 126.487099,147.881287 
	C121.332687,147.958939 118.177071,143.985107 117.994308,136.721481 
z"/>
<path fill="#F6622B" opacity="1.000000" stroke="none" 
	d="
M88.341393,77.050415 
	C95.008080,73.203362 101.528687,78.274788 101.347763,85.369148 
	C100.902000,102.849091 101.222359,120.348083 101.190155,137.839340 
	C101.178642,144.094162 98.214218,147.728470 93.190514,147.858170 
	C87.994995,147.992294 84.819649,144.220490 84.808578,137.720612 
	C84.778770,120.229347 84.663635,102.735870 84.941467,85.248978 
	C84.983940,82.575821 86.933258,79.932968 88.341393,77.050415 
z"/>
<path fill="#F1602B" opacity="1.000000" stroke="none" 
	d="
M51.189438,119.371544 
	C51.598499,112.278526 54.595634,108.838356 59.860722,108.965561 
	C65.135414,109.092995 67.976303,112.693146 68.002296,119.358665 
	C68.026993,125.691872 68.069885,132.026077 67.987755,138.358322 
	C67.913971,144.046997 64.688225,147.729736 59.853741,147.875549 
	C54.928295,148.024139 51.291656,144.096802 51.209164,138.324615 
	C51.121056,132.159241 51.189087,125.991631 51.189438,119.371544 
z"/>
<path fill="#F8F8F8" opacity="1.000000" stroke="none" 
	d="
M273.713806,73.352585 
	C273.484558,83.723122 269.815735,88.304237 260.096619,89.395561 
	C254.396759,90.035576 248.566238,89.512299 242.518478,89.512299 
	C242.518478,79.699791 242.518478,70.147202 242.518478,60.286800 
	C248.823380,60.286800 254.972061,59.821579 261.019440,60.405529 
	C268.440979,61.122173 271.831970,64.931297 273.713806,73.352585 
z"/>
<path fill="#FCFCFC" opacity="1.000000" stroke="none" 
	d="
M821.168701,130.397736 
	C808.411072,131.435974 802.460815,127.072212 799.979980,114.944649 
	C798.323547,106.847389 798.257263,98.713142 801.045898,90.818130 
	C804.414551,81.281548 812.028931,77.320625 822.525940,79.131317 
	C828.815796,80.216286 838.949036,89.459465 837.478333,97.311325 
	C836.694275,101.496895 837.339355,105.950142 837.339355,110.282570 
	C837.339355,121.600616 832.706726,127.477921 821.168701,130.397736 
z"/>
<path fill="#FCFCFC" opacity="1.000000" stroke="none" 
	d="
M912.826233,84.254669 
	C914.652954,88.762390 916.273926,92.961830 918.136108,97.786095 
	C904.411072,97.786095 892.040955,97.786095 879.521118,97.786095 
	C880.143372,89.430908 882.925354,82.433350 891.098755,79.474907 
	C898.922852,76.642929 906.471802,77.531776 912.826233,84.254669 
z"/>
</svg>